<svg width="1366" height="627" xmlns="http://www.w3.org/2000/svg"><g><path d="M-21,-46L-115,123L78,98Z" fill="#ea4130" stroke="#ea4130"/><path d="M-21,-46L78,98L35,-102Z" fill="#ed1b1e" stroke="#ed1b1e"/><path d="M35,-102L78,98L230,16Z" fill="#f34030" stroke="#f34030"/><path d="M35,-102L230,16L233,-116Z" fill="#f73a23" stroke="#f73a23"/><path d="M233,-116L230,16L363,-62Z" fill="#fe5832" stroke="#fe5832"/><path d="M233,-116L363,-62L733,-87Z" fill="#ff704e" stroke="#ff704e"/><path d="M233,-116L733,-87L845,-128Z" fill="#f67c64" stroke="#f67c64"/><path d="M363,-62L230,16L326,47Z" fill="#fe6e48" stroke="#fe6e48"/><path d="M363,-62L326,47L528,67Z" fill="#ff885f" stroke="#ff885f"/><path d="M363,-62L528,67L562,-25Z" fill="#ff8465" stroke="#ff8465"/><path d="M363,-62L562,-25L733,-87Z" fill="#fe7f60" stroke="#fe7f60"/><path d="M562,-25L528,67L626,32Z" fill="#fba07b" stroke="#fba07b"/><path d="M562,-25L626,32L733,-87Z" fill="#f17970" stroke="#f17970"/><path d="M733,-87L626,32L780,23Z" fill="#e67e7b" stroke="#e67e7b"/><path d="M733,-87L780,23L845,-128Z" fill="#da6f72" stroke="#da6f72"/><path d="M845,-128L780,23L984,-72Z" fill="#ca6470" stroke="#ca6470"/><path d="M845,-128L984,-72L1164,-111Z" fill="#ac4e64" stroke="#ac4e64"/><path d="M984,-72L780,23L989,53Z" fill="#be6e7e" stroke="#be6e7e"/><path d="M984,-72L989,53L1133,31Z" fill="#a35c74" stroke="#a35c74"/><path d="M984,-72L1133,31L1164,-111Z" fill="#963e5d" stroke="#963e5d"/><path d="M1164,-111L1133,31L1260,61Z" fill="#803b62" stroke="#803b62"/><path d="M1164,-111L1260,61L1326,-22Z" fill="#802457" stroke="#802457"/><path d="M1164,-111L1326,-22L1397,-74Z" fill="#801b48" stroke="#801b48"/><path d="M1164,-111L1397,-74L1518,-81Z" fill="#801042" stroke="#801042"/><path d="M1326,-22L1260,61L1383,67Z" fill="#804063" stroke="#804063"/><path d="M1326,-22L1383,67L1397,-74Z" fill="#801950" stroke="#801950"/><path d="M1397,-74L1383,67L1518,-81Z" fill="#800344" stroke="#800344"/><path d="M1518,-81L1383,67L1520,109Z" fill="#802753" stroke="#802753"/><path d="M1518,-81L1520,109L1566,273Z" fill="#805764" stroke="#805764"/><path d="M1518,-81L1566,273L1613,434Z" fill="#80788e" stroke="#80788e"/><path d="M-115,123L-97,332L-70,275Z" fill="#e57e71" stroke="#e57e71"/><path d="M-115,123L-70,275L69,257Z" fill="#e97c6d" stroke="#e97c6d"/><path d="M-115,123L69,257L78,98Z" fill="#ec7e59" stroke="#ec7e59"/><path d="M78,98L69,257L206,221Z" fill="#f3a175" stroke="#f3a175"/><path d="M78,98L206,221L230,16Z" fill="#f79959" stroke="#f79959"/><path d="M230,16L206,221L326,47Z" fill="#fda55e" stroke="#fda55e"/><path d="M326,47L206,221L337,218Z" fill="#fec87e" stroke="#fec87e"/><path d="M326,47L337,218L528,67Z" fill="#ffc77b" stroke="#ffc77b"/><path d="M528,67L337,218L499,224Z" fill="#ffe29d" stroke="#ffe29d"/><path d="M528,67L499,224L681,266Z" fill="#fcf1b6" stroke="#fcf1b6"/><path d="M528,67L681,266L626,32Z" fill="#f5e09d" stroke="#f5e09d"/><path d="M626,32L681,266L771,250Z" fill="#e9e8be" stroke="#e9e8be"/><path d="M626,32L771,250L780,23Z" fill="#e4caa0" stroke="#e4caa0"/><path d="M780,23L771,250L959,254Z" fill="#d1dbc3" stroke="#d1dbc3"/><path d="M780,23L959,254L989,53Z" fill="#c0baa1" stroke="#c0baa1"/><path d="M989,53L959,254L1137,201Z" fill="#a5b9af" stroke="#a5b9af"/><path d="M989,53L1137,201L1133,31Z" fill="#97918c" stroke="#97918c"/><path d="M1133,31L1137,201L1260,61Z" fill="#828484" stroke="#828484"/><path d="M1260,61L1137,201L1317,190Z" fill="#809193" stroke="#809193"/><path d="M1260,61L1317,190L1383,67Z" fill="#80717a" stroke="#80717a"/><path d="M1383,67L1317,190L1438,269Z" fill="#807d91" stroke="#807d91"/><path d="M1383,67L1438,269L1520,109Z" fill="#806d7e" stroke="#806d7e"/><path d="M1520,109L1438,269L1566,273Z" fill="#807997" stroke="#807997"/><path d="M-70,275L-97,332L81,333Z" fill="#dd8483" stroke="#dd8483"/><path d="M-70,275L81,333L69,257Z" fill="#e69488" stroke="#e69488"/><path d="M69,257L81,333L206,221Z" fill="#f0ad91" stroke="#f0ad91"/><path d="M206,221L81,333L262,325Z" fill="#efbe9c" stroke="#efbe9c"/><path d="M206,221L262,325L337,218Z" fill="#fdd5a3" stroke="#fdd5a3"/><path d="M337,218L262,325L330,426Z" fill="#f0dcb1" stroke="#f0dcb1"/><path d="M337,218L330,426L499,224Z" fill="#f7e8bb" stroke="#f7e8bb"/><path d="M499,224L330,426L546,330Z" fill="#eff2cb" stroke="#eff2cb"/><path d="M499,224L546,330L681,266Z" fill="#f6fdd6" stroke="#f6fdd6"/><path d="M681,266L546,330L661,432Z" fill="#e0f9e2" stroke="#e0f9e2"/><path d="M681,266L661,432L801,316Z" fill="#d4f4e8" stroke="#d4f4e8"/><path d="M681,266L801,316L771,250Z" fill="#daf1e4" stroke="#daf1e4"/><path d="M771,250L801,316L959,254Z" fill="#cbe8e7" stroke="#cbe8e7"/><path d="M959,254L801,316L921,413Z" fill="#b5e0e8" stroke="#b5e0e8"/><path d="M959,254L921,413L1178,325Z" fill="#97cadd" stroke="#97cadd"/><path d="M959,254L1178,325L1137,201Z" fill="#94bece" stroke="#94bece"/><path d="M1137,201L1178,325L1317,190Z" fill="#80a6bd" stroke="#80a6bd"/><path d="M1317,190L1178,325L1391,419Z" fill="#739ac1" stroke="#739ac1"/><path d="M1317,190L1391,419L1438,269Z" fill="#778bb7" stroke="#778bb7"/><path d="M1438,269L1391,419L1566,273Z" fill="#7280b2" stroke="#7280b2"/><path d="M1566,273L1391,419L1613,434Z" fill="#6680b3" stroke="#6680b3"/><path d="M-97,332L-54,788L-56,492Z" fill="#6b3a6d" stroke="#6b3a6d"/><path d="M-97,332L-56,492L81,333Z" fill="#cb8289" stroke="#cb8289"/><path d="M81,333L-56,492L83,579Z" fill="#9d6f84" stroke="#9d6f84"/><path d="M81,333L83,579L201,481Z" fill="#a58790" stroke="#a58790"/><path d="M81,333L201,481L262,325Z" fill="#dcbca4" stroke="#dcbca4"/><path d="M262,325L201,481L330,426Z" fill="#cfc5aa" stroke="#cfc5aa"/><path d="M330,426L201,481L347,488Z" fill="#afb4a6" stroke="#afb4a6"/><path d="M330,426L347,488L517,529Z" fill="#a6bcb6" stroke="#a6bcb6"/><path d="M330,426L517,529L546,330Z" fill="#c6ddc9" stroke="#c6ddc9"/><path d="M546,330L517,529L661,432Z" fill="#c0e6d9" stroke="#c0e6d9"/><path d="M661,432L517,529L725,519Z" fill="#91c7d5" stroke="#91c7d5"/><path d="M661,432L725,519L767,512Z" fill="#88c3db" stroke="#88c3db"/><path d="M661,432L767,512L801,316Z" fill="#addfe8" stroke="#addfe8"/><path d="M801,316L767,512L921,413Z" fill="#a3dbee" stroke="#a3dbee"/><path d="M921,413L767,512L915,531Z" fill="#6fb5df" stroke="#6fb5df"/><path d="M921,413L915,531L1098,538Z" fill="#4f9ed3" stroke="#4f9ed3"/><path d="M921,413L1098,538L1178,325Z" fill="#65add6" stroke="#65add6"/><path d="M1178,325L1098,538L1239,434Z" fill="#4898cb" stroke="#4898cb"/><path d="M1178,325L1239,434L1391,419Z" fill="#5c98c8" stroke="#5c98c8"/><path d="M1239,434L1098,538L1284,515Z" fill="#1e76be" stroke="#1e76be"/><path d="M1239,434L1284,515L1391,419Z" fill="#3676bb" stroke="#3676bb"/><path d="M1391,419L1284,515L1450,518Z" fill="#255eb0" stroke="#255eb0"/><path d="M1391,419L1450,518L1613,434Z" fill="#355daa" stroke="#355daa"/><path d="M1613,434L1450,518L1595,571Z" fill="#17479c" stroke="#17479c"/><path d="M1613,434L1595,571L1569,775Z" fill="#00228b" stroke="#00228b"/><path d="M-56,492L-54,788L-27,658Z" fill="#690c5f" stroke="#690c5f"/><path d="M-56,492L-27,658L83,579Z" fill="#6c366f" stroke="#6c366f"/><path d="M83,579L-27,658L60,678Z" fill="#6e266b" stroke="#6e266b"/><path d="M83,579L60,678L196,686Z" fill="#743673" stroke="#743673"/><path d="M83,579L196,686L201,481Z" fill="#775f83" stroke="#775f83"/><path d="M201,481L196,686L347,488Z" fill="#7d8493" stroke="#7d8493"/><path d="M347,488L196,686L428,684Z" fill="#7f7694" stroke="#7f7694"/><path d="M347,488L428,684L517,529Z" fill="#7f9cae" stroke="#7f9cae"/><path d="M517,529L428,684L498,733Z" fill="#8080aa" stroke="#8080aa"/><path d="M517,529L498,733L645,695Z" fill="#7f88b6" stroke="#7f88b6"/><path d="M517,529L645,695L725,519Z" fill="#73a2c7" stroke="#73a2c7"/><path d="M725,519L645,695L778,661Z" fill="#6688c7" stroke="#6688c7"/><path d="M725,519L778,661L767,512Z" fill="#5fa0d3" stroke="#5fa0d3"/><path d="M767,512L778,661L915,531Z" fill="#569ad7" stroke="#569ad7"/><path d="M915,531L778,661L994,654Z" fill="#4478c9" stroke="#4478c9"/><path d="M915,531L994,654L1098,538Z" fill="#2b77c5" stroke="#2b77c5"/><path d="M1098,538L994,654L1164,631Z" fill="#185bb8" stroke="#185bb8"/><path d="M1098,538L1164,631L1284,515Z" fill="#025eb6" stroke="#025eb6"/><path d="M1284,515L1164,631L1239,702Z" fill="#003eaa" stroke="#003eaa"/><path d="M1284,515L1239,702L1388,715Z" fill="#00259f" stroke="#00259f"/><path d="M1284,515L1388,715L1450,518Z" fill="#0034a1" stroke="#0034a1"/><path d="M1450,518L1388,715L1533,717Z" fill="#000a8f" stroke="#000a8f"/><path d="M1450,518L1533,717L1595,571Z" fill="#001f90" stroke="#001f90"/><path d="M1595,571L1533,717L1569,775Z" fill="#000080" stroke="#000080"/><path d="M-27,658L-54,788L36,781Z" fill="#6b0954" stroke="#6b0954"/><path d="M-27,658L36,781L60,678Z" fill="#6d135f" stroke="#6d135f"/><path d="M60,678L36,781L196,686Z" fill="#732767" stroke="#732767"/><path d="M196,686L36,781L251,826Z" fill="#773967" stroke="#773967"/><path d="M196,686L251,826L428,684Z" fill="#7f5a7d" stroke="#7f5a7d"/><path d="M428,684L251,826L388,860Z" fill="#7f6380" stroke="#7f6380"/><path d="M428,684L388,860L498,733Z" fill="#7f7093" stroke="#7f7093"/><path d="M498,733L388,860L543,864Z" fill="#7f7590" stroke="#7f7590"/><path d="M498,733L543,864L633,803Z" fill="#7e7fa0" stroke="#7e7fa0"/><path d="M498,733L633,803L645,695Z" fill="#797dab" stroke="#797dab"/><path d="M645,695L633,803L814,805Z" fill="#6975af" stroke="#6975af"/><path d="M645,695L814,805L778,661Z" fill="#6172bb" stroke="#6172bb"/><path d="M778,661L814,805L994,654Z" fill="#4c65be" stroke="#4c65be"/><path d="M994,654L814,805L1017,805Z" fill="#3958af" stroke="#3958af"/><path d="M994,654L1017,805L1154,787Z" fill="#1f44a6" stroke="#1f44a6"/><path d="M994,654L1154,787L1164,631Z" fill="#143caa" stroke="#143caa"/><path d="M1164,631L1154,787L1239,702Z" fill="#012ea0" stroke="#012ea0"/><path d="M1239,702L1154,787L1262,792Z" fill="#002895" stroke="#002895"/><path d="M1239,702L1262,792L1388,715Z" fill="#001b91" stroke="#001b91"/><path d="M1388,715L1262,792L1449,786Z" fill="#000f86" stroke="#000f86"/><path d="M1388,715L1449,786L1533,717Z" fill="#000082" stroke="#000082"/><path d="M1533,717L1449,786L1569,775Z" fill="#000079" stroke="#000079"/><path d="M-54,788L388,860L251,826Z" fill="#794262" stroke="#794262"/><path d="M-54,788L251,826L36,781Z" fill="#712258" stroke="#712258"/><path d="M543,864L1449,786L1262,792Z" fill="#183f99" stroke="#183f99"/><path d="M543,864L1262,792L1017,805Z" fill="#3a58a5" stroke="#3a58a5"/><path d="M543,864L1017,805L814,805Z" fill="#5a6fae" stroke="#5a6fae"/><path d="M543,864L814,805L633,803Z" fill="#6e78a4" stroke="#6e78a4"/><path d="M1017,805L1262,792L1154,787Z" fill="#0a3596" stroke="#0a3596"/></g></svg>