<svg width="1351" height="651" xmlns="http://www.w3.org/2000/svg"><g><path d="M-52,-54L-71,163L-50,70Z" fill="#e55459" stroke="#e55459"/><path d="M-52,-54L-50,70L25,-27Z" fill="#e83e56" stroke="#e83e56"/><path d="M-52,-54L25,-27L129,-25Z" fill="#ed3b56" stroke="#ed3b56"/><path d="M-52,-54L129,-25L241,-37Z" fill="#f34657" stroke="#f34657"/><path d="M-52,-54L241,-37L373,-56Z" fill="#fa5058" stroke="#fa5058"/><path d="M-52,-54L373,-56L569,-72Z" fill="#fd5e60" stroke="#fd5e60"/><path d="M25,-27L-50,70L29,53Z" fill="#ea5259" stroke="#ea5259"/><path d="M25,-27L29,53L129,-25Z" fill="#ef4f58" stroke="#ef4f58"/><path d="M129,-25L29,53L155,70Z" fill="#f3655b" stroke="#f3655b"/><path d="M129,-25L155,70L229,33Z" fill="#f96e5c" stroke="#f96e5c"/><path d="M129,-25L229,33L241,-37Z" fill="#fb635b" stroke="#fb635b"/><path d="M241,-37L229,33L328,59Z" fill="#fd7b61" stroke="#fd7b61"/><path d="M241,-37L328,59L373,-56Z" fill="#fe7765" stroke="#fe7765"/><path d="M373,-56L328,59L461,57Z" fill="#fe926f" stroke="#fe926f"/><path d="M373,-56L461,57L436,-57Z" fill="#fe8871" stroke="#fe8871"/><path d="M373,-56L436,-57L569,-72Z" fill="#fd7b72" stroke="#fd7b72"/><path d="M436,-57L461,57L551,48Z" fill="#fd9e77" stroke="#fd9e77"/><path d="M436,-57L551,48L569,-72Z" fill="#fb8d75" stroke="#fb8d75"/><path d="M569,-72L551,48L649,38Z" fill="#f79e79" stroke="#f79e79"/><path d="M569,-72L649,38L648,-53Z" fill="#f59178" stroke="#f59178"/><path d="M569,-72L648,-53L742,-63Z" fill="#f38477" stroke="#f38477"/><path d="M569,-72L742,-63L1238,-69Z" fill="#d47676" stroke="#d47676"/><path d="M648,-53L649,38L742,-63Z" fill="#f2947a" stroke="#f2947a"/><path d="M742,-63L649,38L747,71Z" fill="#eca47c" stroke="#eca47c"/><path d="M742,-63L747,71L847,-35Z" fill="#e1947a" stroke="#e1947a"/><path d="M742,-63L847,-35L945,-41Z" fill="#d58077" stroke="#d58077"/><path d="M742,-63L945,-41L1061,-57Z" fill="#c87678" stroke="#c87678"/><path d="M742,-63L1061,-57L1238,-69Z" fill="#b16180" stroke="#b16180"/><path d="M847,-35L747,71L858,39Z" fill="#daa17b" stroke="#daa17b"/><path d="M847,-35L858,39L945,-41Z" fill="#cf8b79" stroke="#cf8b79"/><path d="M945,-41L858,39L942,62Z" fill="#c8967c" stroke="#c8967c"/><path d="M945,-41L942,62L1048,29Z" fill="#ba8981" stroke="#ba8981"/><path d="M945,-41L1048,29L1061,-57Z" fill="#b17282" stroke="#b17282"/><path d="M1061,-57L1048,29L1164,-29Z" fill="#a0678a" stroke="#a0678a"/><path d="M1061,-57L1164,-29L1238,-69Z" fill="#924e8d" stroke="#924e8d"/><path d="M1164,-29L1048,29L1158,44Z" fill="#99708f" stroke="#99708f"/><path d="M1164,-29L1158,44L1273,44Z" fill="#886595" stroke="#886595"/><path d="M1164,-29L1273,44L1238,-69Z" fill="#825096" stroke="#825096"/><path d="M1238,-69L1273,44L1367,-58Z" fill="#7f419b" stroke="#7f419b"/><path d="M1238,-69L1367,-58L1434,-63Z" fill="#7f289e" stroke="#7f289e"/><path d="M1367,-58L1273,44L1342,67Z" fill="#7f4ea1" stroke="#7f4ea1"/><path d="M1367,-58L1342,67L1431,32Z" fill="#7f44a6" stroke="#7f44a6"/><path d="M1367,-58L1431,32L1434,-63Z" fill="#7f2ca6" stroke="#7f2ca6"/><path d="M1434,-63L1431,32L1446,163Z" fill="#7f47ad" stroke="#7f47ad"/><path d="M1434,-63L1446,163L1453,243Z" fill="#8064b2" stroke="#8064b2"/><path d="M-50,70L-71,163L37,127Z" fill="#e8735f" stroke="#e8735f"/><path d="M-50,70L37,127L29,53Z" fill="#eb695b" stroke="#eb695b"/><path d="M29,53L37,127L155,70Z" fill="#f1755d" stroke="#f1755d"/><path d="M155,70L37,127L157,151Z" fill="#f48b61" stroke="#f48b61"/><path d="M155,70L157,151L256,160Z" fill="#fb9c66" stroke="#fb9c66"/><path d="M155,70L256,160L229,33Z" fill="#fd9060" stroke="#fd9060"/><path d="M229,33L256,160L328,59Z" fill="#fe9965" stroke="#fe9965"/><path d="M328,59L256,160L372,135Z" fill="#feb06f" stroke="#feb06f"/><path d="M328,59L372,135L461,57Z" fill="#feae72" stroke="#feae72"/><path d="M461,57L372,135L468,143Z" fill="#ffc37a" stroke="#ffc37a"/><path d="M461,57L468,143L551,48Z" fill="#fcbb7a" stroke="#fcbb7a"/><path d="M551,48L468,143L538,170Z" fill="#fbcc80" stroke="#fbcc80"/><path d="M551,48L538,170L652,138Z" fill="#f8ce82" stroke="#f8ce82"/><path d="M551,48L652,138L649,38Z" fill="#f6be7e" stroke="#f6be7e"/><path d="M649,38L652,138L747,71Z" fill="#f2c380" stroke="#f2c380"/><path d="M747,71L652,138L735,168Z" fill="#edd385" stroke="#edd385"/><path d="M747,71L735,168L835,175Z" fill="#e2d488" stroke="#e2d488"/><path d="M747,71L835,175L858,39Z" fill="#dbbf80" stroke="#dbbf80"/><path d="M858,39L835,175L939,162Z" fill="#d0c784" stroke="#d0c784"/><path d="M858,39L939,162L942,62Z" fill="#c9b47f" stroke="#c9b47f"/><path d="M942,62L939,162L1025,147Z" fill="#bdb989" stroke="#bdb989"/><path d="M942,62L1025,147L1048,29Z" fill="#b4a087" stroke="#b4a087"/><path d="M1048,29L1025,147L1145,133Z" fill="#a59f8e" stroke="#a59f8e"/><path d="M1048,29L1145,133L1158,44Z" fill="#9b8891" stroke="#9b8891"/><path d="M1158,44L1145,133L1241,165Z" fill="#8c919a" stroke="#8c919a"/><path d="M1158,44L1241,165L1273,44Z" fill="#827d9b" stroke="#827d9b"/><path d="M1273,44L1241,165L1342,152Z" fill="#8081a6" stroke="#8081a6"/><path d="M1273,44L1342,152L1342,67Z" fill="#806ea4" stroke="#806ea4"/><path d="M1342,67L1342,152L1446,163Z" fill="#8075b0" stroke="#8075b0"/><path d="M1342,67L1446,163L1431,32Z" fill="#805fac" stroke="#805fac"/><path d="M-71,163L-62,640L-57,362Z" fill="#d0937f" stroke="#d0937f"/><path d="M-71,163L-57,362L-27,236Z" fill="#e6967c" stroke="#e6967c"/><path d="M-71,163L-27,236L37,127Z" fill="#e88b6f" stroke="#e88b6f"/><path d="M37,127L-27,236L64,257Z" fill="#ec9f78" stroke="#ec9f78"/><path d="M37,127L64,257L157,151Z" fill="#f29e72" stroke="#f29e72"/><path d="M157,151L64,257L159,272Z" fill="#f5b57e" stroke="#f5b57e"/><path d="M157,151L159,272L273,226Z" fill="#fbc17f" stroke="#fbc17f"/><path d="M157,151L273,226L256,160Z" fill="#feb876" stroke="#feb876"/><path d="M256,160L273,226L372,135Z" fill="#fec37c" stroke="#fec37c"/><path d="M372,135L273,226L364,248Z" fill="#fed588" stroke="#fed588"/><path d="M372,135L364,248L434,231Z" fill="#fee08f" stroke="#fee08f"/><path d="M372,135L434,231L468,143Z" fill="#ffd889" stroke="#ffd889"/><path d="M468,143L434,231L538,170Z" fill="#fde390" stroke="#fde390"/><path d="M538,170L434,231L551,230Z" fill="#fcf098" stroke="#fcf098"/><path d="M538,170L551,230L628,242Z" fill="#f8f49b" stroke="#f8f49b"/><path d="M538,170L628,242L652,138Z" fill="#f6ea94" stroke="#f6ea94"/><path d="M652,138L628,242L735,168Z" fill="#f3ec96" stroke="#f3ec96"/><path d="M735,168L628,242L730,263Z" fill="#eff9a0" stroke="#eff9a0"/><path d="M735,168L730,263L835,175Z" fill="#e3ee9a" stroke="#e3ee9a"/><path d="M835,175L730,263L865,257Z" fill="#dcf19f" stroke="#dcf19f"/><path d="M835,175L865,257L939,162Z" fill="#d0e498" stroke="#d0e498"/><path d="M939,162L865,257L955,236Z" fill="#c8e79f" stroke="#c8e79f"/><path d="M939,162L955,236L1025,147Z" fill="#bcd09a" stroke="#bcd09a"/><path d="M1025,147L955,236L1065,237Z" fill="#b2d3a5" stroke="#b2d3a5"/><path d="M1025,147L1065,237L1145,133Z" fill="#a4baa1" stroke="#a4baa1"/><path d="M1145,133L1065,237L1171,227Z" fill="#98bdad" stroke="#98bdad"/><path d="M1145,133L1171,227L1241,165Z" fill="#8ba9ac" stroke="#8ba9ac"/><path d="M1241,165L1171,227L1259,236Z" fill="#82b0b9" stroke="#82b0b9"/><path d="M1241,165L1259,236L1342,152Z" fill="#809cb7" stroke="#809cb7"/><path d="M1342,152L1259,236L1365,252Z" fill="#80a1c3" stroke="#80a1c3"/><path d="M1342,152L1365,252L1446,163Z" fill="#808dc2" stroke="#808dc2"/><path d="M1446,163L1365,252L1453,243Z" fill="#8091cd" stroke="#8091cd"/><path d="M-27,236L-57,362L70,340Z" fill="#ea9e81" stroke="#ea9e81"/><path d="M-27,236L70,340L64,257Z" fill="#eda580" stroke="#eda580"/><path d="M64,257L70,340L159,272Z" fill="#f3b082" stroke="#f3b082"/><path d="M159,272L70,340L146,363Z" fill="#f5b585" stroke="#f5b585"/><path d="M159,272L146,363L232,362Z" fill="#f7be86" stroke="#f7be86"/><path d="M159,272L232,362L273,226Z" fill="#fdc685" stroke="#fdc685"/><path d="M273,226L232,362L364,248Z" fill="#fed28b" stroke="#fed28b"/><path d="M364,248L232,362L360,374Z" fill="#fdd792" stroke="#fdd792"/><path d="M364,248L360,374L430,348Z" fill="#fee499" stroke="#fee499"/><path d="M364,248L430,348L434,231Z" fill="#ffe898" stroke="#ffe898"/><path d="M434,231L430,348L551,230Z" fill="#fef19d" stroke="#fef19d"/><path d="M551,230L430,348L562,357Z" fill="#fbf3a1" stroke="#fbf3a1"/><path d="M551,230L562,357L628,242Z" fill="#f8f6a1" stroke="#f8f6a1"/><path d="M628,242L562,357L663,361Z" fill="#f6f8a5" stroke="#f6f8a5"/><path d="M628,242L663,361L730,263Z" fill="#f3faa4" stroke="#f3faa4"/><path d="M730,263L663,361L750,329Z" fill="#ecf7a6" stroke="#ecf7a6"/><path d="M730,263L750,329L865,257Z" fill="#e1f3a3" stroke="#e1f3a3"/><path d="M865,257L750,329L830,374Z" fill="#dbf0a5" stroke="#dbf0a5"/><path d="M865,257L830,374L947,346Z" fill="#d0eca5" stroke="#d0eca5"/><path d="M865,257L947,346L955,236Z" fill="#c7e7a4" stroke="#c7e7a4"/><path d="M955,236L947,346L1038,363Z" fill="#baddab" stroke="#baddab"/><path d="M955,236L1038,363L1065,237Z" fill="#b1d6ad" stroke="#b1d6ad"/><path d="M1065,237L1038,363L1157,365Z" fill="#a2cab5" stroke="#a2cab5"/><path d="M1065,237L1157,365L1171,227Z" fill="#98c3b6" stroke="#98c3b6"/><path d="M1171,227L1157,365L1269,329Z" fill="#88b7be" stroke="#88b7be"/><path d="M1171,227L1269,329L1259,236Z" fill="#80b1bf" stroke="#80b1bf"/><path d="M1259,236L1269,329L1365,252Z" fill="#80a6c5" stroke="#80a6c5"/><path d="M1365,252L1269,329L1362,343Z" fill="#80a0cb" stroke="#80a0cb"/><path d="M1365,252L1362,343L1431,341Z" fill="#8097d0" stroke="#8097d0"/><path d="M1365,252L1431,341L1453,243Z" fill="#8092d1" stroke="#8092d1"/><path d="M1453,243L1431,341L1456,471Z" fill="#778dd6" stroke="#778dd6"/><path d="M1453,243L1456,471L1471,645Z" fill="#5082da" stroke="#5082da"/><path d="M-57,362L-62,640L-40,563Z" fill="#907093" stroke="#907093"/><path d="M-57,362L-40,563L-26,453Z" fill="#b48d84" stroke="#b48d84"/><path d="M-57,362L-26,453L70,340Z" fill="#d69d81" stroke="#d69d81"/><path d="M70,340L-26,453L32,463Z" fill="#cda381" stroke="#cda381"/><path d="M70,340L32,463L146,363Z" fill="#dcad83" stroke="#dcad83"/><path d="M146,363L32,463L172,472Z" fill="#d0b382" stroke="#d0b382"/><path d="M146,363L172,472L238,445Z" fill="#d8bf84" stroke="#d8bf84"/><path d="M146,363L238,445L232,362Z" fill="#e7c285" stroke="#e7c285"/><path d="M232,362L238,445L360,374Z" fill="#e7cf8b" stroke="#e7cf8b"/><path d="M360,374L238,445L348,464Z" fill="#dcd68f" stroke="#dcd68f"/><path d="M360,374L348,464L432,438Z" fill="#dde296" stroke="#dde296"/><path d="M360,374L432,438L430,348Z" fill="#eae79a" stroke="#eae79a"/><path d="M430,348L432,438L559,426Z" fill="#e3f09f" stroke="#e3f09f"/><path d="M430,348L559,426L562,357Z" fill="#eaf3a1" stroke="#eaf3a1"/><path d="M562,357L559,426L663,361Z" fill="#e4f6a3" stroke="#e4f6a3"/><path d="M663,361L559,426L640,448Z" fill="#d9f7a3" stroke="#d9f7a3"/><path d="M663,361L640,448L740,455Z" fill="#d2f9a5" stroke="#d2f9a5"/><path d="M663,361L740,455L750,329Z" fill="#d9f7a5" stroke="#d9f7a5"/><path d="M750,329L740,455L830,374Z" fill="#cef3a4" stroke="#cef3a4"/><path d="M830,374L740,455L831,457Z" fill="#bbf1a3" stroke="#bbf1a3"/><path d="M830,374L831,457L951,446Z" fill="#b0eca3" stroke="#b0eca3"/><path d="M830,374L951,446L947,346Z" fill="#b5e8a4" stroke="#b5e8a4"/><path d="M947,346L951,446L1038,363Z" fill="#a6dcaa" stroke="#a6dcaa"/><path d="M1038,363L951,446L1059,429Z" fill="#94d6ad" stroke="#94d6ad"/><path d="M1038,363L1059,429L1157,365Z" fill="#8ecab4" stroke="#8ecab4"/><path d="M1157,365L1059,429L1148,439Z" fill="#7dc4b7" stroke="#7dc4b7"/><path d="M1157,365L1148,439L1228,453Z" fill="#6dbabc" stroke="#6dbabc"/><path d="M1157,365L1228,453L1269,329Z" fill="#71b3c0" stroke="#71b3c0"/><path d="M1269,329L1228,453L1362,343Z" fill="#6fa8c7" stroke="#6fa8c7"/><path d="M1362,343L1228,453L1371,468Z" fill="#60a2c9" stroke="#60a2c9"/><path d="M1362,343L1371,468L1431,341Z" fill="#6c96d0" stroke="#6c96d0"/><path d="M1431,341L1371,468L1456,471Z" fill="#5e91d1" stroke="#5e91d1"/><path d="M-26,453L-40,563L32,463Z" fill="#a3838d" stroke="#a3838d"/><path d="M32,463L-40,563L37,573Z" fill="#8f7696" stroke="#8f7696"/><path d="M32,463L37,573L154,564Z" fill="#948198" stroke="#948198"/><path d="M32,463L154,564L172,472Z" fill="#ab9791" stroke="#ab9791"/><path d="M172,472L154,564L243,555Z" fill="#a0979a" stroke="#a0979a"/><path d="M172,472L243,555L238,445Z" fill="#b9ac92" stroke="#b9ac92"/><path d="M238,445L243,555L348,464Z" fill="#bbb896" stroke="#bbb896"/><path d="M348,464L243,555L358,541Z" fill="#a9b2a2" stroke="#a9b2a2"/><path d="M348,464L358,541L430,554Z" fill="#a9bea9" stroke="#a9bea9"/><path d="M348,464L430,554L432,438Z" fill="#bdd1a4" stroke="#bdd1a4"/><path d="M432,438L430,554L534,545Z" fill="#adcfb0" stroke="#adcfb0"/><path d="M432,438L534,545L559,426Z" fill="#c3e3a7" stroke="#c3e3a7"/><path d="M559,426L534,545L640,448Z" fill="#bde5aa" stroke="#bde5aa"/><path d="M640,448L534,545L669,544Z" fill="#a5d6b4" stroke="#a5d6b4"/><path d="M640,448L669,544L740,455Z" fill="#b1e5af" stroke="#b1e5af"/><path d="M740,455L669,544L755,561Z" fill="#96d2b7" stroke="#96d2b7"/><path d="M740,455L755,561L831,457Z" fill="#9ddbb0" stroke="#9ddbb0"/><path d="M831,457L755,561L850,535Z" fill="#87cdb6" stroke="#87cdb6"/><path d="M831,457L850,535L951,446Z" fill="#92d8ac" stroke="#92d8ac"/><path d="M951,446L850,535L930,563Z" fill="#78c6b5" stroke="#78c6b5"/><path d="M951,446L930,563L1060,543Z" fill="#67b9bd" stroke="#67b9bd"/><path d="M951,446L1060,543L1059,429Z" fill="#76c4b6" stroke="#76c4b6"/><path d="M1059,429L1060,543L1126,540Z" fill="#57adc3" stroke="#57adc3"/><path d="M1059,429L1126,540L1148,439Z" fill="#64b7bd" stroke="#64b7bd"/><path d="M1148,439L1126,540L1238,527Z" fill="#439fca" stroke="#439fca"/><path d="M1148,439L1238,527L1228,453Z" fill="#4ca5c7" stroke="#4ca5c7"/><path d="M1228,453L1238,527L1371,468Z" fill="#4095d0" stroke="#4095d0"/><path d="M1371,468L1238,527L1345,568Z" fill="#2a7ddc" stroke="#2a7ddc"/><path d="M1371,468L1345,568L1445,556Z" fill="#246ee5" stroke="#246ee5"/><path d="M1371,468L1445,556L1456,471Z" fill="#3775e0" stroke="#3775e0"/><path d="M1456,471L1445,556L1471,645Z" fill="#1556f1" stroke="#1556f1"/><path d="M-40,563L-62,640L37,573Z" fill="#6a57a3" stroke="#6a57a3"/><path d="M37,573L-62,640L41,667Z" fill="#6b4ea7" stroke="#6b4ea7"/><path d="M37,573L41,667L130,651Z" fill="#7157a9" stroke="#7157a9"/><path d="M37,573L130,651L154,564Z" fill="#746da7" stroke="#746da7"/><path d="M154,564L130,651L254,671Z" fill="#7a6bab" stroke="#7a6bab"/><path d="M154,564L254,671L243,555Z" fill="#7e7fa9" stroke="#7e7fa9"/><path d="M243,555L254,671L333,638Z" fill="#7e80b2" stroke="#7e80b2"/><path d="M243,555L333,638L358,541Z" fill="#8899af" stroke="#8899af"/><path d="M358,541L333,638L434,630Z" fill="#7f9abb" stroke="#7f9abb"/><path d="M358,541L434,630L430,554Z" fill="#8aabb9" stroke="#8aabb9"/><path d="M430,554L434,630L534,545Z" fill="#89b3be" stroke="#89b3be"/><path d="M534,545L434,630L564,638Z" fill="#7caac6" stroke="#7caac6"/><path d="M534,545L564,638L669,544Z" fill="#82bac2" stroke="#82bac2"/><path d="M669,544L564,638L628,647Z" fill="#76adca" stroke="#76adca"/><path d="M669,544L628,647L769,628Z" fill="#71b0cb" stroke="#71b0cb"/><path d="M669,544L769,628L755,561Z" fill="#73b9c4" stroke="#73b9c4"/><path d="M755,561L769,628L850,535Z" fill="#6bb6c3" stroke="#6bb6c3"/><path d="M850,535L769,628L834,649Z" fill="#5ba8c9" stroke="#5ba8c9"/><path d="M850,535L834,649L930,563Z" fill="#59adc4" stroke="#59adc4"/><path d="M930,563L834,649L966,635Z" fill="#4b9bcb" stroke="#4b9bcb"/><path d="M930,563L966,635L1060,543Z" fill="#419dcb" stroke="#419dcb"/><path d="M1060,543L966,635L1060,663Z" fill="#2f88d5" stroke="#2f88d5"/><path d="M1060,543L1060,663L1132,653Z" fill="#237cda" stroke="#237cda"/><path d="M1060,543L1132,653L1126,540Z" fill="#2789d5" stroke="#2789d5"/><path d="M1126,540L1132,653L1238,527Z" fill="#1c81da" stroke="#1c81da"/><path d="M1238,527L1132,653L1270,662Z" fill="#0568e6" stroke="#0568e6"/><path d="M1238,527L1270,662L1345,568Z" fill="#0568e7" stroke="#0568e7"/><path d="M1345,568L1270,662L1335,672Z" fill="#004ef0" stroke="#004ef0"/><path d="M1345,568L1335,672L1471,645Z" fill="#0045f6" stroke="#0045f6"/><path d="M1345,568L1471,645L1445,556Z" fill="#034ff5" stroke="#034ff5"/><path d="M-62,640L-53,746L41,667Z" fill="#6930a7" stroke="#6930a7"/><path d="M41,667L-53,746L75,727Z" fill="#6d2ba8" stroke="#6d2ba8"/><path d="M41,667L75,727L130,651Z" fill="#7244a9" stroke="#7244a9"/><path d="M130,651L75,727L153,765Z" fill="#753caa" stroke="#753caa"/><path d="M130,651L153,765L254,671Z" fill="#7a4fab" stroke="#7a4fab"/><path d="M254,671L153,765L275,738Z" fill="#7e4bac" stroke="#7e4bac"/><path d="M254,671L275,738L333,638Z" fill="#7f68b3" stroke="#7f68b3"/><path d="M333,638L275,738L366,765Z" fill="#7f62b7" stroke="#7f62b7"/><path d="M333,638L366,765L434,630Z" fill="#7f7abd" stroke="#7f7abd"/><path d="M434,630L366,765L471,756Z" fill="#7f72c2" stroke="#7f72c2"/><path d="M434,630L471,756L564,638Z" fill="#7d8bc6" stroke="#7d8bc6"/><path d="M564,638L471,756L527,757Z" fill="#7c7bc7" stroke="#7c7bc7"/><path d="M564,638L527,757L639,749Z" fill="#797ec9" stroke="#797ec9"/><path d="M564,638L639,749L628,647Z" fill="#778fca" stroke="#778fca"/><path d="M628,647L639,749L769,628Z" fill="#7394cc" stroke="#7394cc"/><path d="M769,628L639,749L757,768Z" fill="#6b7fcb" stroke="#6b7fcb"/><path d="M769,628L757,768L836,745Z" fill="#607bcb" stroke="#607bcb"/><path d="M769,628L836,745L834,649Z" fill="#5c8acb" stroke="#5c8acb"/><path d="M834,649L836,745L966,635Z" fill="#5185ca" stroke="#5185ca"/><path d="M966,635L836,745L965,774Z" fill="#486ecc" stroke="#486ecc"/><path d="M966,635L965,774L1045,736Z" fill="#3863d2" stroke="#3863d2"/><path d="M966,635L1045,736L1060,663Z" fill="#316dd5" stroke="#316dd5"/><path d="M1060,663L1045,736L1132,653Z" fill="#2461da" stroke="#2461da"/><path d="M1132,653L1045,736L1162,748Z" fill="#1c4fdd" stroke="#1c4fdd"/><path d="M1132,653L1162,748L1270,662Z" fill="#0b4de4" stroke="#0b4de4"/><path d="M1270,662L1162,748L1260,767Z" fill="#0136e8" stroke="#0136e8"/><path d="M1270,662L1260,767L1338,728Z" fill="#002eed" stroke="#002eed"/><path d="M1270,662L1338,728L1335,672Z" fill="#0038ef" stroke="#0038ef"/><path d="M1335,672L1338,728L1471,645Z" fill="#002ff6" stroke="#002ff6"/><path d="M1471,645L1338,728L1461,764Z" fill="#001af9" stroke="#001af9"/><path d="M-53,746L153,765L75,727Z" fill="#7029a9" stroke="#7029a9"/><path d="M153,765L965,774L366,765Z" fill="#7d72c7" stroke="#7d72c7"/><path d="M153,765L366,765L275,738Z" fill="#7e4eb1" stroke="#7e4eb1"/><path d="M366,765L965,774L757,768Z" fill="#7079cc" stroke="#7079cc"/><path d="M366,765L757,768L527,757Z" fill="#7a75c8" stroke="#7a75c8"/><path d="M366,765L527,757L471,756Z" fill="#7f70c5" stroke="#7f70c5"/><path d="M527,757L757,768L639,749Z" fill="#7579cb" stroke="#7579cb"/><path d="M757,768L965,774L836,745Z" fill="#556eca" stroke="#556eca"/><path d="M965,774L1461,764L1260,767Z" fill="#0233e8" stroke="#0233e8"/><path d="M965,774L1260,767L1162,748Z" fill="#1944df" stroke="#1944df"/><path d="M965,774L1162,748L1045,736Z" fill="#2950d8" stroke="#2950d8"/><path d="M1260,767L1461,764L1338,728Z" fill="#001df3" stroke="#001df3"/></g></svg>