<svg width="1351" height="675" xmlns="http://www.w3.org/2000/svg"><g><path d="M-11,-59L-71,36L69,-10Z" fill="#c0182c" stroke="#c0182c"/><path d="M-11,-59L69,-10L81,-20Z" fill="#c11a2d" stroke="#c11a2d"/><path d="M-11,-59L81,-20L234,-49Z" fill="#c3222f" stroke="#c3222f"/><path d="M-11,-59L234,-49L454,-60Z" fill="#cc3c3c" stroke="#cc3c3c"/><path d="M-11,-59L454,-60L939,-76Z" fill="#d76664" stroke="#d76664"/><path d="M69,-10L-71,36L74,10Z" fill="#c92835" stroke="#c92835"/><path d="M69,-10L74,10L81,-20Z" fill="#ca2b35" stroke="#ca2b35"/><path d="M81,-20L74,10L113,33Z" fill="#cf343a" stroke="#cf343a"/><path d="M81,-20L113,33L234,-49Z" fill="#cf373b" stroke="#cf373b"/><path d="M234,-49L113,33L249,25Z" fill="#d94945" stroke="#d94945"/><path d="M234,-49L249,25L264,-12Z" fill="#d94d4a" stroke="#d94d4a"/><path d="M234,-49L264,-12L320,-6Z" fill="#d94c4b" stroke="#d94c4b"/><path d="M234,-49L320,-6L454,-60Z" fill="#da5251" stroke="#da5251"/><path d="M264,-12L249,25L320,-6Z" fill="#df5952" stroke="#df5952"/><path d="M320,-6L249,25L266,139Z" fill="#ec715e" stroke="#ec715e"/><path d="M320,-6L266,139L390,118Z" fill="#f9896d" stroke="#f9896d"/><path d="M320,-6L390,118L393,12Z" fill="#f07d6b" stroke="#f07d6b"/><path d="M320,-6L393,12L454,-60Z" fill="#e16461" stroke="#e16461"/><path d="M454,-60L393,12L481,-28Z" fill="#e1696a" stroke="#e1696a"/><path d="M454,-60L481,-28L573,-56Z" fill="#dd6d71" stroke="#dd6d71"/><path d="M454,-60L573,-56L939,-76Z" fill="#cb7079" stroke="#cb7079"/><path d="M481,-28L393,12L435,46Z" fill="#e97971" stroke="#e97971"/><path d="M481,-28L435,46L537,49Z" fill="#ee867e" stroke="#ee867e"/><path d="M481,-28L537,49L573,-56Z" fill="#e47a7c" stroke="#e47a7c"/><path d="M573,-56L537,49L570,66Z" fill="#e98986" stroke="#e98986"/><path d="M573,-56L570,66L655,-41Z" fill="#de7c82" stroke="#de7c82"/><path d="M573,-56L655,-41L939,-76Z" fill="#c66b76" stroke="#c66b76"/><path d="M655,-41L570,66L693,50Z" fill="#e48d8d" stroke="#e48d8d"/><path d="M655,-41L693,50L727,3Z" fill="#d98289" stroke="#d98289"/><path d="M655,-41L727,3L748,-12Z" fill="#d27682" stroke="#d27682"/><path d="M655,-41L748,-12L838,-27Z" fill="#cb6d7b" stroke="#cb6d7b"/><path d="M655,-41L838,-27L939,-76Z" fill="#bf616f" stroke="#bf616f"/><path d="M748,-12L727,3L847,45Z" fill="#d27c82" stroke="#d27c82"/><path d="M748,-12L847,45L838,-27Z" fill="#cc747b" stroke="#cc747b"/><path d="M838,-27L847,45L933,75Z" fill="#cb797a" stroke="#cb797a"/><path d="M838,-27L933,75L939,-76Z" fill="#bc616b" stroke="#bc616b"/><path d="M939,-76L933,75L1024,-54Z" fill="#b05460" stroke="#b05460"/><path d="M939,-76L1024,-54L1112,-54Z" fill="#9c424c" stroke="#9c424c"/><path d="M939,-76L1112,-54L1172,-63Z" fill="#933943" stroke="#933943"/><path d="M1024,-54L933,75L1038,51Z" fill="#b66366" stroke="#b66366"/><path d="M1024,-54L1038,51L1112,-54Z" fill="#a14551" stroke="#a14551"/><path d="M1112,-54L1038,51L1061,78Z" fill="#aa5759" stroke="#aa5759"/><path d="M1112,-54L1061,78L1190,0Z" fill="#9d464d" stroke="#9d464d"/><path d="M1112,-54L1190,0L1172,-63Z" fill="#8b2b3b" stroke="#8b2b3b"/><path d="M1172,-63L1190,0L1279,-8Z" fill="#852835" stroke="#852835"/><path d="M1172,-63L1279,-8L1303,-17Z" fill="#7d1f2d" stroke="#7d1f2d"/><path d="M1172,-63L1303,-17L1380,-45Z" fill="#751525" stroke="#751525"/><path d="M1279,-8L1190,0L1276,47Z" fill="#893338" stroke="#893338"/><path d="M1279,-8L1276,47L1303,-17Z" fill="#812a30" stroke="#812a30"/><path d="M1303,-17L1276,47L1346,8Z" fill="#7e292e" stroke="#7e292e"/><path d="M1303,-17L1346,8L1380,-45Z" fill="#711420" stroke="#711420"/><path d="M1380,-45L1346,8L1391,76Z" fill="#741e23" stroke="#741e23"/><path d="M1380,-45L1391,76L1402,99Z" fill="#782927" stroke="#782927"/><path d="M1380,-45L1402,99L1432,207Z" fill="#803b30" stroke="#803b30"/><path d="M-71,36L-79,541L-68,241Z" fill="#d18087" stroke="#d18087"/><path d="M-71,36L-68,241L-65,230Z" fill="#d2635c" stroke="#d2635c"/><path d="M-71,36L-65,230L-41,129Z" fill="#d2514f" stroke="#d2514f"/><path d="M-71,36L-41,129L43,128Z" fill="#d64746" stroke="#d64746"/><path d="M-71,36L43,128L74,10Z" fill="#d43c3f" stroke="#d43c3f"/><path d="M74,10L43,128L113,33Z" fill="#da4945" stroke="#da4945"/><path d="M113,33L43,128L113,140Z" fill="#e26053" stroke="#e26053"/><path d="M113,33L113,140L208,102Z" fill="#e86855" stroke="#e86855"/><path d="M113,33L208,102L229,78Z" fill="#e96654" stroke="#e96654"/><path d="M113,33L229,78L249,25Z" fill="#e35c50" stroke="#e35c50"/><path d="M229,78L208,102L266,139Z" fill="#f18267" stroke="#f18267"/><path d="M229,78L266,139L249,25Z" fill="#f17860" stroke="#f17860"/><path d="M393,12L390,118L435,46Z" fill="#f58b77" stroke="#f58b77"/><path d="M435,46L390,118L463,151Z" fill="#fca489" stroke="#fca489"/><path d="M435,46L463,151L525,85Z" fill="#fda68f" stroke="#fda68f"/><path d="M435,46L525,85L537,49Z" fill="#f89a8a" stroke="#f89a8a"/><path d="M537,49L525,85L570,66Z" fill="#f79f90" stroke="#f79f90"/><path d="M570,66L525,85L603,109Z" fill="#f9a997" stroke="#f9a997"/><path d="M570,66L603,109L693,50Z" fill="#f2a498" stroke="#f2a498"/><path d="M693,50L603,109L670,111Z" fill="#f1ac9f" stroke="#f1ac9f"/><path d="M693,50L670,111L754,129Z" fill="#ecac9f" stroke="#ecac9f"/><path d="M693,50L754,129L727,3Z" fill="#e49993" stroke="#e49993"/><path d="M727,3L754,129L837,91Z" fill="#e29a91" stroke="#e29a91"/><path d="M727,3L837,91L847,45Z" fill="#d88987" stroke="#d88987"/><path d="M847,45L837,91L933,75Z" fill="#d58c84" stroke="#d58c84"/><path d="M933,75L837,91L957,135Z" fill="#d39487" stroke="#d39487"/><path d="M933,75L957,135L1038,51Z" fill="#c98478" stroke="#c98478"/><path d="M1038,51L957,135L984,151Z" fill="#c68e7f" stroke="#c68e7f"/><path d="M1038,51L984,151L1061,78Z" fill="#c17f73" stroke="#c17f73"/><path d="M1061,78L984,151L1100,124Z" fill="#bd8778" stroke="#bd8778"/><path d="M1061,78L1100,124L1190,0Z" fill="#ad635c" stroke="#ad635c"/><path d="M1190,0L1100,124L1186,129Z" fill="#aa6459" stroke="#aa6459"/><path d="M1190,0L1186,129L1253,107Z" fill="#a0594f" stroke="#a0594f"/><path d="M1190,0L1253,107L1276,47Z" fill="#944643" stroke="#944643"/><path d="M1276,47L1253,107L1302,87Z" fill="#954d43" stroke="#954d43"/><path d="M1276,47L1302,87L1346,8Z" fill="#873936" stroke="#873936"/><path d="M1346,8L1302,87L1391,76Z" fill="#833732" stroke="#833732"/><path d="M1391,76L1302,87L1402,99Z" fill="#874236" stroke="#874236"/><path d="M-41,129L-65,230L46,227Z" fill="#d7736e" stroke="#d7736e"/><path d="M-41,129L46,227L43,128Z" fill="#da6f62" stroke="#da6f62"/><path d="M43,128L46,227L113,140Z" fill="#e07b69" stroke="#e07b69"/><path d="M113,140L46,227L134,161Z" fill="#e38671" stroke="#e38671"/><path d="M113,140L134,161L208,102Z" fill="#e97e66" stroke="#e97e66"/><path d="M208,102L134,161L179,197Z" fill="#eb8c6f" stroke="#eb8c6f"/><path d="M208,102L179,197L266,139Z" fill="#ef9273" stroke="#ef9273"/><path d="M266,139L179,197L305,227Z" fill="#f2aa8a" stroke="#f2aa8a"/><path d="M266,139L305,227L327,163Z" fill="#f6b08c" stroke="#f6b08c"/><path d="M266,139L327,163L390,118Z" fill="#f9a583" stroke="#f9a583"/><path d="M390,118L327,163L450,237Z" fill="#fbbf9b" stroke="#fbbf9b"/><path d="M390,118L450,237L463,151Z" fill="#fcc5a2" stroke="#fcc5a2"/><path d="M463,151L450,237L560,192Z" fill="#fed6ba" stroke="#fed6ba"/><path d="M463,151L560,192L525,85Z" fill="#fdc3a8" stroke="#fdc3a8"/><path d="M525,85L560,192L603,109Z" fill="#f9bea6" stroke="#f9bea6"/><path d="M603,109L560,192L635,222Z" fill="#f6d4bb" stroke="#f6d4bb"/><path d="M603,109L635,222L670,111Z" fill="#f3c8b3" stroke="#f3c8b3"/><path d="M670,111L635,222L703,203Z" fill="#f0d6c2" stroke="#f0d6c2"/><path d="M670,111L703,203L754,129Z" fill="#ecc4b2" stroke="#ecc4b2"/><path d="M754,129L703,203L784,186Z" fill="#e8ccb8" stroke="#e8ccb8"/><path d="M754,129L784,186L837,91Z" fill="#e3b5a4" stroke="#e3b5a4"/><path d="M837,91L784,186L817,237Z" fill="#e0c4b0" stroke="#e0c4b0"/><path d="M837,91L817,237L957,135Z" fill="#d9b5a1" stroke="#d9b5a1"/><path d="M957,135L817,237L957,209Z" fill="#d3bead" stroke="#d3bead"/><path d="M957,135L957,209L968,177Z" fill="#cbb09c" stroke="#cbb09c"/><path d="M957,135L968,177L984,151Z" fill="#caa692" stroke="#caa692"/><path d="M984,151L968,177L1047,220Z" fill="#c5ad9a" stroke="#c5ad9a"/><path d="M984,151L1047,220L1100,124Z" fill="#be9f8b" stroke="#be9f8b"/><path d="M1100,124L1047,220L1171,218Z" fill="#b39d8a" stroke="#b39d8a"/><path d="M1100,124L1171,218L1186,129Z" fill="#ab8875" stroke="#ab8875"/><path d="M1186,129L1171,218L1242,227Z" fill="#a38e7c" stroke="#a38e7c"/><path d="M1186,129L1242,227L1253,107Z" fill="#9f7b67" stroke="#9f7b67"/><path d="M1253,107L1242,227L1350,208Z" fill="#957c69" stroke="#957c69"/><path d="M1253,107L1350,208L1302,87Z" fill="#926453" stroke="#926453"/><path d="M1302,87L1350,208L1402,99Z" fill="#895a49" stroke="#895a49"/><path d="M1402,99L1350,208L1432,207Z" fill="#826651" stroke="#826651"/><path d="M-65,230L-68,241L46,227Z" fill="#d67f7f" stroke="#d67f7f"/><path d="M46,227L-68,241L-13,331Z" fill="#d8898d" stroke="#d8898d"/><path d="M46,227L-13,331L61,331Z" fill="#dc9294" stroke="#dc9294"/><path d="M46,227L61,331L73,246Z" fill="#df9994" stroke="#df9994"/><path d="M46,227L73,246L134,161Z" fill="#e28f80" stroke="#e28f80"/><path d="M134,161L73,246L179,197Z" fill="#e69580" stroke="#e69580"/><path d="M179,197L73,246L118,282Z" fill="#e6a293" stroke="#e6a293"/><path d="M179,197L118,282L186,260Z" fill="#eaac99" stroke="#eaac99"/><path d="M179,197L186,260L294,256Z" fill="#efb59e" stroke="#efb59e"/><path d="M179,197L294,256L305,227Z" fill="#f3b99e" stroke="#f3b99e"/><path d="M305,227L294,256L343,302Z" fill="#f8cdb5" stroke="#f8cdb5"/><path d="M305,227L343,302L450,237Z" fill="#fbd7be" stroke="#fbd7be"/><path d="M305,227L450,237L327,163Z" fill="#fac7a7" stroke="#fac7a7"/><path d="M450,237L343,302L444,322Z" fill="#fcdeca" stroke="#fcdeca"/><path d="M450,237L444,322L462,309Z" fill="#fde5d3" stroke="#fde5d3"/><path d="M450,237L462,309L536,270Z" fill="#fee9d7" stroke="#fee9d7"/><path d="M450,237L536,270L560,192Z" fill="#fee6d1" stroke="#fee6d1"/><path d="M560,192L536,270L615,261Z" fill="#f9ead9" stroke="#f9ead9"/><path d="M560,192L615,261L635,222Z" fill="#f6e5d4" stroke="#f6e5d4"/><path d="M635,222L615,261L675,268Z" fill="#f3eee3" stroke="#f3eee3"/><path d="M635,222L675,268L703,203Z" fill="#f0e8db" stroke="#f0e8db"/><path d="M703,203L675,268L753,274Z" fill="#eceae0" stroke="#eceae0"/><path d="M703,203L753,274L784,186Z" fill="#e8ddcf" stroke="#e8ddcf"/><path d="M784,186L753,274L817,237Z" fill="#e3dcd0" stroke="#e3dcd0"/><path d="M817,237L753,274L870,320Z" fill="#e0e0da" stroke="#e0e0da"/><path d="M817,237L870,320L957,209Z" fill="#d7d7ce" stroke="#d7d7ce"/><path d="M957,209L870,320L944,309Z" fill="#d1d1cb" stroke="#d1d1cb"/><path d="M957,209L944,309L977,313Z" fill="#cbcbc5" stroke="#cbcbc5"/><path d="M957,209L977,313L1047,220Z" fill="#c6c4ba" stroke="#c6c4ba"/><path d="M957,209L1047,220L968,177Z" fill="#c7b5a5" stroke="#c7b5a5"/><path d="M1047,220L977,313L1061,257Z" fill="#c1c1b9" stroke="#c1c1b9"/><path d="M1047,220L1061,257L1171,218Z" fill="#b6aea2" stroke="#b6aea2"/><path d="M1171,218L1061,257L1176,315Z" fill="#aeaea6" stroke="#aeaea6"/><path d="M1171,218L1176,315L1242,245Z" fill="#a4a49b" stroke="#a4a49b"/><path d="M1171,218L1242,245L1242,227Z" fill="#a0988c" stroke="#a0988c"/><path d="M1242,227L1242,245L1335,263Z" fill="#97948a" stroke="#97948a"/><path d="M1242,227L1335,263L1350,208Z" fill="#90897d" stroke="#90897d"/><path d="M1350,208L1335,263L1415,256Z" fill="#878379" stroke="#878379"/><path d="M1350,208L1415,256L1432,207Z" fill="#81776a" stroke="#81776a"/><path d="M1432,207L1415,256L1439,443Z" fill="#80807c" stroke="#80807c"/><path d="M-68,241L-79,541L-29,409Z" fill="#c77484" stroke="#c77484"/><path d="M-68,241L-29,409L-13,331Z" fill="#d58491" stroke="#d58491"/><path d="M73,246L61,331L118,282Z" fill="#e29e98" stroke="#e29e98"/><path d="M118,282L61,331L117,341Z" fill="#e3a19d" stroke="#e3a19d"/><path d="M118,282L117,341L186,260Z" fill="#e8aa9f" stroke="#e8aa9f"/><path d="M186,260L117,341L171,396Z" fill="#eaada5" stroke="#eaada5"/><path d="M186,260L171,396L250,397Z" fill="#ebb4a9" stroke="#ebb4a9"/><path d="M186,260L250,397L294,256Z" fill="#f1bfae" stroke="#f1bfae"/><path d="M294,256L250,397L343,302Z" fill="#f6cab8" stroke="#f6cab8"/><path d="M343,302L250,397L375,351Z" fill="#f6cdbc" stroke="#f6cdbc"/><path d="M343,302L375,351L444,322Z" fill="#fbdac9" stroke="#fbdac9"/><path d="M462,309L444,322L491,393Z" fill="#fde6da" stroke="#fde6da"/><path d="M462,309L491,393L536,270Z" fill="#feece0" stroke="#feece0"/><path d="M536,270L491,393L589,358Z" fill="#fbede5" stroke="#fbede5"/><path d="M536,270L589,358L615,261Z" fill="#f8eee4" stroke="#f8eee4"/><path d="M615,261L589,358L675,268Z" fill="#f4efe8" stroke="#f4efe8"/><path d="M675,268L589,358L645,401Z" fill="#f2eeec" stroke="#f2eeec"/><path d="M675,268L645,401L725,343Z" fill="#efefef" stroke="#efefef"/><path d="M675,268L725,343L753,274Z" fill="#ebebe7" stroke="#ebebe7"/><path d="M753,274L725,343L866,334Z" fill="#e4e4e2" stroke="#e4e4e2"/><path d="M753,274L866,334L870,320Z" fill="#dededb" stroke="#dededb"/><path d="M870,320L866,334L944,309Z" fill="#d5d5d3" stroke="#d5d5d3"/><path d="M944,309L866,334L893,393Z" fill="#d3d3d3" stroke="#d3d3d3"/><path d="M944,309L893,393L984,360Z" fill="#cbcbcb" stroke="#cbcbcb"/><path d="M944,309L984,360L977,313Z" fill="#cacac9" stroke="#cacac9"/><path d="M977,313L984,360L1070,379Z" fill="#c1c1c1" stroke="#c1c1c1"/><path d="M977,313L1070,379L1061,257Z" fill="#bfbfbd" stroke="#bfbfbd"/><path d="M1061,257L1070,379L1167,331Z" fill="#b4b4b3" stroke="#b4b4b3"/><path d="M1061,257L1167,331L1176,315Z" fill="#aeaeaa" stroke="#aeaeaa"/><path d="M1176,315L1167,331L1277,381Z" fill="#a1a1a1" stroke="#a1a1a1"/><path d="M1176,315L1277,381L1242,245Z" fill="#9e9e9b" stroke="#9e9e9b"/><path d="M1242,245L1277,381L1343,337Z" fill="#949492" stroke="#949492"/><path d="M1242,245L1343,337L1335,263Z" fill="#91918b" stroke="#91918b"/><path d="M1335,263L1343,337L1415,256Z" fill="#878781" stroke="#878781"/><path d="M1415,256L1343,337L1372,392Z" fill="#858584" stroke="#858584"/><path d="M1415,256L1372,392L1439,443Z" fill="#7b7b7b" stroke="#7b7b7b"/><path d="M-13,331L-29,409L7,419Z" fill="#ce808b" stroke="#ce808b"/><path d="M-13,331L7,419L61,331Z" fill="#d68b93" stroke="#d68b93"/><path d="M61,331L7,419L95,445Z" fill="#d38b8f" stroke="#d38b8f"/><path d="M61,331L95,445L117,341Z" fill="#db9897" stroke="#db9897"/><path d="M117,341L95,445L171,396Z" fill="#db9c97" stroke="#db9c97"/><path d="M171,396L95,445L220,485Z" fill="#d2968e" stroke="#d2968e"/><path d="M171,396L220,485L230,465Z" fill="#d49e92" stroke="#d49e92"/><path d="M171,396L230,465L250,397Z" fill="#dfaa9e" stroke="#dfaa9e"/><path d="M250,397L230,465L287,426Z" fill="#dfaea1" stroke="#dfaea1"/><path d="M250,397L287,426L375,351Z" fill="#ecc1b1" stroke="#ecc1b1"/><path d="M375,351L287,426L345,445Z" fill="#ecc4b3" stroke="#ecc4b3"/><path d="M375,351L345,445L426,444Z" fill="#eccabb" stroke="#eccabb"/><path d="M375,351L426,444L444,322Z" fill="#f5d8ca" stroke="#f5d8ca"/><path d="M444,322L426,444L491,393Z" fill="#f3dbcf" stroke="#f3dbcf"/><path d="M491,393L426,444L476,511Z" fill="#e3ccc0" stroke="#e3ccc0"/><path d="M491,393L476,511L524,404Z" fill="#e8d6cc" stroke="#e8d6cc"/><path d="M491,393L524,404L589,358Z" fill="#f2e4dc" stroke="#f2e4dc"/><path d="M589,358L524,404L587,468Z" fill="#ebe0da" stroke="#ebe0da"/><path d="M589,358L587,468L645,401Z" fill="#e8e1dd" stroke="#e8e1dd"/><path d="M704,387L725,343L645,401Z" fill="#e6e6e6" stroke="#e6e6e6"/><path d="M704,387L645,401L669,513Z" fill="#dbdbdb" stroke="#dbdbdb"/><path d="M704,387L669,513L796,435Z" fill="#d1d1d1" stroke="#d1d1d1"/><path d="M704,387L796,435L725,343Z" fill="#dedede" stroke="#dedede"/><path d="M725,343L796,435L866,334Z" fill="#dcdcdc" stroke="#dcdcdc"/><path d="M866,334L796,435L893,393Z" fill="#d2d2d2" stroke="#d2d2d2"/><path d="M893,393L796,435L849,470Z" fill="#c8c8c8" stroke="#c8c8c8"/><path d="M893,393L849,470L926,424Z" fill="#c3c3c3" stroke="#c3c3c3"/><path d="M893,393L926,424L984,360Z" fill="#c5c5c5" stroke="#c5c5c5"/><path d="M984,360L926,424L996,416Z" fill="#bebebe" stroke="#bebebe"/><path d="M984,360L996,416L1070,379Z" fill="#b9b9b9" stroke="#b9b9b9"/><path d="M1070,379L996,416L1070,464Z" fill="#aeaeae" stroke="#aeaeae"/><path d="M1070,379L1070,464L1164,446Z" fill="#a1a1a1" stroke="#a1a1a1"/><path d="M1070,379L1164,446L1167,331Z" fill="#a5a5a5" stroke="#a5a5a5"/><path d="M1167,331L1164,446L1267,410Z" fill="#989898" stroke="#989898"/><path d="M1167,331L1267,410L1277,381Z" fill="#969696" stroke="#969696"/><path d="M1277,381L1267,410L1356,426Z" fill="#858585" stroke="#858585"/><path d="M1277,381L1356,426L1372,392Z" fill="#808080" stroke="#808080"/><path d="M1277,381L1372,392L1343,337Z" fill="#868686" stroke="#868686"/><path d="M1372,392L1356,426L1439,443Z" fill="#737373" stroke="#737373"/><path d="M-29,409L-79,541L30,522Z" fill="#ac5d69" stroke="#ac5d69"/><path d="M-29,409L30,522L7,419Z" fill="#bf727b" stroke="#bf727b"/><path d="M7,419L30,522L95,445Z" fill="#be767b" stroke="#be767b"/><path d="M95,445L30,522L97,502Z" fill="#b87374" stroke="#b87374"/><path d="M95,445L97,502L220,485Z" fill="#c3857f" stroke="#c3857f"/><path d="M230,465L220,485L300,536Z" fill="#c79588" stroke="#c79588"/><path d="M230,465L300,536L287,426Z" fill="#d0a192" stroke="#d0a192"/><path d="M287,426L300,536L345,445Z" fill="#d6ab9b" stroke="#d6ab9b"/><path d="M345,445L300,536L369,538Z" fill="#cba392" stroke="#cba392"/><path d="M345,445L369,538L426,444Z" fill="#d7b5a5" stroke="#d7b5a5"/><path d="M426,444L369,538L476,511Z" fill="#d0b4a6" stroke="#d0b4a6"/><path d="M524,404L476,511L587,468Z" fill="#decfc6" stroke="#decfc6"/><path d="M587,468L476,511L503,534Z" fill="#cebfb6" stroke="#cebfb6"/><path d="M587,468L503,534L565,527Z" fill="#cabdb6" stroke="#cabdb6"/><path d="M587,468L565,527L669,513Z" fill="#c8c1bd" stroke="#c8c1bd"/><path d="M587,468L669,513L645,401Z" fill="#d5d1ce" stroke="#d5d1ce"/><path d="M796,435L669,513L784,524Z" fill="#bebebe" stroke="#bebebe"/><path d="M796,435L784,524L849,470Z" fill="#bdbdbd" stroke="#bdbdbd"/><path d="M849,470L784,524L874,540Z" fill="#adadad" stroke="#adadad"/><path d="M849,470L874,540L930,523Z" fill="#a6a6a6" stroke="#a6a6a6"/><path d="M849,470L930,523L926,424Z" fill="#b2b2b2" stroke="#b2b2b2"/><path d="M926,424L930,523L996,416Z" fill="#b1b1b1" stroke="#b1b1b1"/><path d="M996,416L930,523L1038,516Z" fill="#a0a0a0" stroke="#a0a0a0"/><path d="M996,416L1038,516L1070,464Z" fill="#a0a0a0" stroke="#a0a0a0"/><path d="M1070,464L1038,516L1115,492Z" fill="#8f8f8f" stroke="#8f8f8f"/><path d="M1070,464L1115,492L1164,446Z" fill="#919191" stroke="#919191"/><path d="M1164,446L1115,492L1167,501Z" fill="#868686" stroke="#868686"/><path d="M1164,446L1167,501L1267,410Z" fill="#888888" stroke="#888888"/><path d="M1267,410L1167,501L1311,498Z" fill="#797979" stroke="#797979"/><path d="M1267,410L1311,498L1356,426Z" fill="#787878" stroke="#787878"/><path d="M1356,426L1311,498L1364,517Z" fill="#656565" stroke="#656565"/><path d="M1356,426L1364,517L1439,443Z" fill="#646464" stroke="#646464"/><path d="M1439,443L1364,517L1371,594Z" fill="#4e4e4e" stroke="#4e4e4e"/><path d="M1439,443L1371,594L1379,683Z" fill="#373737" stroke="#373737"/><path d="M1439,443L1379,683L1363,752Z" fill="#222222" stroke="#222222"/><path d="M-79,541L-68,772L-66,632Z" fill="#681725" stroke="#681725"/><path d="M-79,541L-66,632L47,595Z" fill="#843441" stroke="#843441"/><path d="M-79,541L47,595L30,522Z" fill="#974a53" stroke="#974a53"/><path d="M30,522L47,595L97,502Z" fill="#a25c5f" stroke="#a25c5f"/><path d="M97,502L47,595L112,592Z" fill="#9c5858" stroke="#9c5858"/><path d="M97,502L112,592L179,565Z" fill="#a56560" stroke="#a56560"/><path d="M97,502L179,565L220,485Z" fill="#b77b72" stroke="#b77b72"/><path d="M220,485L179,565L300,536Z" fill="#b88578" stroke="#b88578"/><path d="M300,536L179,565L296,597Z" fill="#ab7b6d" stroke="#ab7b6d"/><path d="M300,536L296,597L361,583Z" fill="#ae8474" stroke="#ae8474"/><path d="M300,536L361,583L369,538Z" fill="#b89180" stroke="#b89180"/><path d="M369,538L361,583L474,571Z" fill="#b59687" stroke="#b59687"/><path d="M369,538L474,571L476,511Z" fill="#bfa699" stroke="#bfa699"/><path d="M476,511L474,571L503,534Z" fill="#c1ada2" stroke="#c1ada2"/><path d="M503,534L474,571L523,567Z" fill="#baa89e" stroke="#baa89e"/><path d="M503,534L523,567L565,527Z" fill="#beb0a7" stroke="#beb0a7"/><path d="M565,527L523,567L628,578Z" fill="#b5aaa4" stroke="#b5aaa4"/><path d="M565,527L628,578L669,513Z" fill="#b8b2af" stroke="#b8b2af"/><path d="M669,513L628,578L670,590Z" fill="#acaaa9" stroke="#acaaa9"/><path d="M669,513L670,590L784,524Z" fill="#aeaeae" stroke="#aeaeae"/><path d="M784,524L670,590L751,629Z" fill="#9c9c9c" stroke="#9c9c9c"/><path d="M784,524L751,629L856,594Z" fill="#949494" stroke="#949494"/><path d="M784,524L856,594L874,540Z" fill="#9b9b9b" stroke="#9b9b9b"/><path d="M874,540L856,594L908,608Z" fill="#8a8a8a" stroke="#8a8a8a"/><path d="M874,540L908,608L930,523Z" fill="#909090" stroke="#909090"/><path d="M930,523L908,608L1008,580Z" fill="#848484" stroke="#848484"/><path d="M930,523L1008,580L1038,516Z" fill="#8a8a8a" stroke="#8a8a8a"/><path d="M1038,516L1008,580L1100,628Z" fill="#727272" stroke="#727272"/><path d="M1038,516L1100,628L1115,492Z" fill="#787878" stroke="#787878"/><path d="M1115,492L1100,628L1158,621Z" fill="#636363" stroke="#636363"/><path d="M1115,492L1158,621L1167,501Z" fill="#707070" stroke="#707070"/><path d="M1167,501L1158,621L1250,568Z" fill="#5e5e5e" stroke="#5e5e5e"/><path d="M1167,501L1250,568L1279,555Z" fill="#606060" stroke="#606060"/><path d="M1167,501L1279,555L1311,498Z" fill="#666666" stroke="#666666"/><path d="M1279,555L1250,568L1350,637Z" fill="#434343" stroke="#434343"/><path d="M1279,555L1350,637L1371,594Z" fill="#393939" stroke="#393939"/><path d="M1279,555L1371,594L1364,517Z" fill="#484848" stroke="#484848"/><path d="M1279,555L1364,517L1311,498Z" fill="#595959" stroke="#595959"/><path d="M-66,632L-68,772L-53,670Z" fill="#580514" stroke="#580514"/><path d="M-66,632L-53,670L35,665Z" fill="#6a1a26" stroke="#6a1a26"/><path d="M-66,632L35,665L47,595Z" fill="#772b34" stroke="#772b34"/><path d="M47,595L35,665L82,660Z" fill="#793235" stroke="#793235"/><path d="M47,595L82,660L112,592Z" fill="#864142" stroke="#864142"/><path d="M112,592L82,660L240,703Z" fill="#7e4039" stroke="#7e4039"/><path d="M112,592L240,703L179,565Z" fill="#8e544a" stroke="#8e544a"/><path d="M179,565L240,703L281,649Z" fill="#8b574b" stroke="#8b574b"/><path d="M179,565L281,649L296,597Z" fill="#9b6a5c" stroke="#9b6a5c"/><path d="M296,597L281,649L389,667Z" fill="#946b5a" stroke="#946b5a"/><path d="M296,597L389,667L361,583Z" fill="#9f7867" stroke="#9f7867"/><path d="M361,583L389,667L448,668Z" fill="#967768" stroke="#967768"/><path d="M361,583L448,668L474,571Z" fill="#a4887b" stroke="#a4887b"/><path d="M474,571L448,668L516,682Z" fill="#988378" stroke="#988378"/><path d="M474,571L516,682L523,567Z" fill="#a6958b" stroke="#a6958b"/><path d="M523,567L516,682L586,694Z" fill="#92857d" stroke="#92857d"/><path d="M523,567L586,694L628,578Z" fill="#9e948e" stroke="#9e948e"/><path d="M628,578L586,694L685,657Z" fill="#8c8886" stroke="#8c8886"/><path d="M628,578L685,657L670,590Z" fill="#989796" stroke="#989796"/><path d="M670,590L685,657L751,629Z" fill="#8d8d8d" stroke="#8d8d8d"/><path d="M751,629L685,657L774,694Z" fill="#7b7b7b" stroke="#7b7b7b"/><path d="M751,629L774,694L852,658Z" fill="#757575" stroke="#757575"/><path d="M751,629L852,658L856,594Z" fill="#7f7f7f" stroke="#7f7f7f"/><path d="M856,594L852,658L908,608Z" fill="#7b7b7b" stroke="#7b7b7b"/><path d="M908,608L852,658L915,683Z" fill="#6c6c6c" stroke="#6c6c6c"/><path d="M908,608L915,683L968,658Z" fill="#666666" stroke="#666666"/><path d="M908,608L968,658L1008,580Z" fill="#707070" stroke="#707070"/><path d="M1008,580L968,658L1053,704Z" fill="#5b5b5b" stroke="#5b5b5b"/><path d="M1008,580L1053,704L1100,628Z" fill="#585858" stroke="#585858"/><path d="M1100,628L1053,704L1182,683Z" fill="#404040" stroke="#404040"/><path d="M1100,628L1182,683L1158,621Z" fill="#454545" stroke="#454545"/><path d="M1158,621L1182,683L1250,568Z" fill="#454545" stroke="#454545"/><path d="M1250,568L1182,683L1264,710Z" fill="#323232" stroke="#323232"/><path d="M1250,568L1264,710L1327,685Z" fill="#2a2a2a" stroke="#2a2a2a"/><path d="M1250,568L1327,685L1350,637Z" fill="#2f2f2f" stroke="#2f2f2f"/><path d="M1350,637L1327,685L1379,683Z" fill="#181818" stroke="#181818"/><path d="M1350,637L1379,683L1371,594Z" fill="#222222" stroke="#222222"/><path d="M-53,670L-68,772L22,775Z" fill="#560512" stroke="#560512"/><path d="M-53,670L22,775L35,665Z" fill="#590d16" stroke="#590d16"/><path d="M35,665L22,775L82,660Z" fill="#60181c" stroke="#60181c"/><path d="M82,660L22,775L158,755Z" fill="#631f1f" stroke="#631f1f"/><path d="M82,660L158,755L240,703Z" fill="#6a2e26" stroke="#6a2e26"/><path d="M240,703L158,755L180,783Z" fill="#6d352a" stroke="#6d352a"/><path d="M240,703L180,783L311,722Z" fill="#724032" stroke="#724032"/><path d="M240,703L311,722L281,649Z" fill="#7a4b3d" stroke="#7a4b3d"/><path d="M281,649L311,722L389,667Z" fill="#835a49" stroke="#835a49"/><path d="M389,667L311,722L376,726Z" fill="#7b5646" stroke="#7b5646"/><path d="M389,667L376,726L404,733Z" fill="#7c5b4c" stroke="#7c5b4c"/><path d="M389,667L404,733L448,668Z" fill="#826456" stroke="#826456"/><path d="M448,668L404,733L507,773Z" fill="#7d6559" stroke="#7d6559"/><path d="M448,668L507,773L516,682Z" fill="#7e6b60" stroke="#7e6b60"/><path d="M516,682L507,773L586,694Z" fill="#7c6e66" stroke="#7c6e66"/><path d="M586,694L507,773L561,797Z" fill="#7b6e67" stroke="#7b6e67"/><path d="M586,694L561,797L640,772Z" fill="#776f6a" stroke="#776f6a"/><path d="M586,694L640,772L685,657Z" fill="#74706d" stroke="#74706d"/><path d="M685,657L640,772L774,694Z" fill="#6e6e6e" stroke="#6e6e6e"/><path d="M774,694L640,772L779,782Z" fill="#6a6a6a" stroke="#6a6a6a"/><path d="M774,694L779,782L864,724Z" fill="#626262" stroke="#626262"/><path d="M774,694L864,724L852,658Z" fill="#636363" stroke="#636363"/><path d="M852,658L864,724L915,683Z" fill="#5e5e5e" stroke="#5e5e5e"/><path d="M915,683L864,724L897,782Z" fill="#565656" stroke="#565656"/><path d="M915,683L897,782L1018,738Z" fill="#4e4e4e" stroke="#4e4e4e"/><path d="M915,683L1018,738L968,658Z" fill="#4f4f4f" stroke="#4f4f4f"/><path d="M968,658L1018,738L1053,704Z" fill="#454545" stroke="#454545"/><path d="M1053,704L1018,738L1058,738Z" fill="#3f3f3f" stroke="#3f3f3f"/><path d="M1053,704L1058,738L1151,764Z" fill="#373737" stroke="#373737"/><path d="M1053,704L1151,764L1182,683Z" fill="#303030" stroke="#303030"/><path d="M1182,683L1151,764L1202,787Z" fill="#272727" stroke="#272727"/><path d="M1182,683L1202,787L1264,710Z" fill="#212121" stroke="#212121"/><path d="M1264,710L1202,787L1328,798Z" fill="#191919" stroke="#191919"/><path d="M1264,710L1328,798L1363,752Z" fill="#0f0f0f" stroke="#0f0f0f"/><path d="M1264,710L1363,752L1327,685Z" fill="#0f0f0f" stroke="#0f0f0f"/><path d="M1327,685L1363,752L1379,683Z" fill="#090909" stroke="#090909"/><path d="M-68,772L180,783L22,775Z" fill="#5e161a" stroke="#5e161a"/><path d="M22,775L180,783L158,755Z" fill="#662622" stroke="#662622"/><path d="M180,783L561,797L507,773Z" fill="#7c5f51" stroke="#7c5f51"/><path d="M180,783L507,773L404,733Z" fill="#7b5747" stroke="#7b5747"/><path d="M180,783L404,733L376,726Z" fill="#794f3e" stroke="#794f3e"/><path d="M180,783L376,726L311,722Z" fill="#76493a" stroke="#76493a"/><path d="M561,797L1328,798L897,782Z" fill="#515151" stroke="#515151"/><path d="M561,797L897,782L779,782Z" fill="#686868" stroke="#686868"/><path d="M561,797L779,782L640,772Z" fill="#72706f" stroke="#72706f"/><path d="M779,782L897,782L864,724Z" fill="#5d5d5d" stroke="#5d5d5d"/><path d="M897,782L1328,798L1202,787Z" fill="#2e2e2e" stroke="#2e2e2e"/><path d="M897,782L1202,787L1151,764Z" fill="#383838" stroke="#383838"/><path d="M897,782L1151,764L1058,738Z" fill="#404040" stroke="#404040"/><path d="M897,782L1058,738L1018,738Z" fill="#474747" stroke="#474747"/></g></svg>