<svg width="1351" height="675" xmlns="http://www.w3.org/2000/svg"><g><path d="M-92,-134L-95,489L-71,49Z" fill="#d0524e" stroke="#d0524e"/><path d="M-92,-134L-71,49L64,-71Z" fill="#b2051f" stroke="#b2051f"/><path d="M-92,-134L64,-71L414,-121Z" fill="#b52823" stroke="#b52823"/><path d="M-92,-134L414,-121L625,-122Z" fill="#c24e3e" stroke="#c24e3e"/><path d="M64,-71L-71,49L74,121Z" fill="#ce3239" stroke="#ce3239"/><path d="M64,-71L74,121L198,-23Z" fill="#d23a3d" stroke="#d23a3d"/><path d="M64,-71L198,-23L414,-121Z" fill="#c83c38" stroke="#c83c38"/><path d="M198,-23L74,121L209,44Z" fill="#e0564b" stroke="#e0564b"/><path d="M198,-23L209,44L353,81Z" fill="#e56356" stroke="#e56356"/><path d="M198,-23L353,81L414,-121Z" fill="#dd5753" stroke="#dd5753"/><path d="M414,-121L353,81L489,75Z" fill="#e9776e" stroke="#e9776e"/><path d="M414,-121L489,75L466,-118Z" fill="#d96665" stroke="#d96665"/><path d="M414,-121L466,-118L625,-122Z" fill="#ca6d63" stroke="#ca6d63"/><path d="M466,-118L489,75L625,-122Z" fill="#d96e71" stroke="#d96e71"/><path d="M625,-122L489,75L669,41Z" fill="#e18083" stroke="#e18083"/><path d="M625,-122L669,41L840,-80Z" fill="#c96c79" stroke="#c96c79"/><path d="M625,-122L840,-80L1406,-73Z" fill="#9f4c4f" stroke="#9f4c4f"/><path d="M625,-122L1406,-73L1547,-74Z" fill="#782528" stroke="#782528"/><path d="M840,-80L669,41L840,17Z" fill="#cc727c" stroke="#cc727c"/><path d="M840,-80L840,17L1000,-52Z" fill="#b65666" stroke="#b65666"/><path d="M840,-80L1000,-52L1083,-49Z" fill="#a44a55" stroke="#a44a55"/><path d="M840,-80L1083,-49L1406,-73Z" fill="#8c333c" stroke="#8c333c"/><path d="M1000,-52L840,17L923,134Z" fill="#c47373" stroke="#c47373"/><path d="M1000,-52L923,134L1138,119Z" fill="#be746d" stroke="#be746d"/><path d="M1000,-52L1138,119L1083,-49Z" fill="#a54e54" stroke="#a54e54"/><path d="M1083,-49L1138,119L1251,-39Z" fill="#984247" stroke="#984247"/><path d="M1083,-49L1251,-39L1406,-73Z" fill="#781c28" stroke="#781c28"/><path d="M1251,-39L1138,119L1253,128Z" fill="#9d534c" stroke="#9d534c"/><path d="M1251,-39L1253,128L1435,96Z" fill="#8a3f39" stroke="#8a3f39"/><path d="M1251,-39L1435,96L1406,-73Z" fill="#701720" stroke="#701720"/><path d="M1406,-73L1435,96L1547,-74Z" fill="#660a16" stroke="#660a16"/><path d="M1547,-74L1435,96L1632,123Z" fill="#772825" stroke="#772825"/><path d="M-71,49L-95,489L-55,274Z" fill="#d18087" stroke="#d18087"/><path d="M-71,49L-55,274L74,121Z" fill="#d7615a" stroke="#d7615a"/><path d="M74,121L-55,274L104,231Z" fill="#dd857b" stroke="#dd857b"/><path d="M74,121L104,231L195,209Z" fill="#e69079" stroke="#e69079"/><path d="M74,121L195,209L209,44Z" fill="#ea7b63" stroke="#ea7b63"/><path d="M209,44L195,209L353,81Z" fill="#f2886c" stroke="#f2886c"/><path d="M353,81L195,209L379,264Z" fill="#f7b592" stroke="#f7b592"/><path d="M353,81L379,264L489,75Z" fill="#fcb292" stroke="#fcb292"/><path d="M489,75L379,264L497,275Z" fill="#fdd4b8" stroke="#fdd4b8"/><path d="M489,75L497,275L728,206Z" fill="#f9d7be" stroke="#f9d7be"/><path d="M489,75L728,206L669,41Z" fill="#f4b4a3" stroke="#f4b4a3"/><path d="M669,41L728,206L840,17Z" fill="#e8a398" stroke="#e8a398"/><path d="M840,17L728,206L923,134Z" fill="#dea99a" stroke="#dea99a"/><path d="M923,134L728,206L876,221Z" fill="#ddc6b4" stroke="#ddc6b4"/><path d="M923,134L876,221L956,169Z" fill="#d2b7a3" stroke="#d2b7a3"/><path d="M923,134L956,169L1138,119Z" fill="#c49988" stroke="#c49988"/><path d="M1138,119L956,169L1140,199Z" fill="#b89884" stroke="#b89884"/><path d="M1138,119L1140,199L1250,168Z" fill="#a78773" stroke="#a78773"/><path d="M1138,119L1250,168L1253,128Z" fill="#a17563" stroke="#a17563"/><path d="M1253,128L1250,168L1435,96Z" fill="#906050" stroke="#906050"/><path d="M1435,96L1250,168L1460,270Z" fill="#846a56" stroke="#846a56"/><path d="M1435,96L1460,270L1582,259Z" fill="#807061" stroke="#807061"/><path d="M1435,96L1582,259L1632,123Z" fill="#805e4a" stroke="#805e4a"/><path d="M1632,123L1582,259L1579,466Z" fill="#80807a" stroke="#80807a"/><path d="M1632,123L1579,466L1596,673Z" fill="#6f6f6f" stroke="#6f6f6f"/><path d="M-55,274L-95,489L-49,355Z" fill="#cb7988" stroke="#cb7988"/><path d="M-55,274L-49,355L106,317Z" fill="#d98c93" stroke="#d98c93"/><path d="M-55,274L106,317L104,231Z" fill="#de9793" stroke="#de9793"/><path d="M104,231L106,317L195,209Z" fill="#e7a899" stroke="#e7a899"/><path d="M195,209L106,317L280,415Z" fill="#edb5a8" stroke="#edb5a8"/><path d="M195,209L280,415L379,264Z" fill="#f5c7b4" stroke="#f5c7b4"/><path d="M379,264L280,415L399,390Z" fill="#f7d1c0" stroke="#f7d1c0"/><path d="M379,264L399,390L497,275Z" fill="#fce0d0" stroke="#fce0d0"/><path d="M497,275L399,390L526,414Z" fill="#f9e4d8" stroke="#f9e4d8"/><path d="M497,275L526,414L724,332Z" fill="#f7eee8" stroke="#f7eee8"/><path d="M497,275L724,332L728,206Z" fill="#f2efe7" stroke="#f2efe7"/><path d="M728,206L724,332L876,221Z" fill="#e4e4db" stroke="#e4e4db"/><path d="M876,221L724,332L841,410Z" fill="#e0e0de" stroke="#e0e0de"/><path d="M876,221L841,410L1008,417Z" fill="#d1d1d1" stroke="#d1d1d1"/><path d="M876,221L1008,417L1084,344Z" fill="#c7c7c6" stroke="#c7c7c6"/><path d="M876,221L1084,344L956,169Z" fill="#c9c6bc" stroke="#c9c6bc"/><path d="M956,169L1084,344L1140,199Z" fill="#bbb6ab" stroke="#bbb6ab"/><path d="M1140,199L1084,344L1325,343Z" fill="#a6a6a2" stroke="#a6a6a2"/><path d="M1140,199L1325,343L1250,168Z" fill="#9d978c" stroke="#9d978c"/><path d="M1250,168L1325,343L1460,270Z" fill="#8a8a82" stroke="#8a8a82"/><path d="M1460,270L1325,343L1371,431Z" fill="#818181" stroke="#818181"/><path d="M1460,270L1371,431L1540,403Z" fill="#7a7a7a" stroke="#7a7a7a"/><path d="M1460,270L1540,403L1582,259Z" fill="#80807d" stroke="#80807d"/><path d="M1582,259L1540,403L1579,466Z" fill="#787878" stroke="#787878"/><path d="M-49,355L-95,489L130,561Z" fill="#b76973" stroke="#b76973"/><path d="M-49,355L130,561L106,317Z" fill="#d18b8d" stroke="#d18b8d"/><path d="M106,317L130,561L223,470Z" fill="#cf928a" stroke="#cf928a"/><path d="M106,317L223,470L280,415Z" fill="#e1aa9f" stroke="#e1aa9f"/><path d="M280,415L223,470L337,564Z" fill="#cea091" stroke="#cea091"/><path d="M280,415L337,564L399,390Z" fill="#ddb5a4" stroke="#ddb5a4"/><path d="M399,390L337,564L560,506Z" fill="#d4b9ac" stroke="#d4b9ac"/><path d="M399,390L560,506L526,414Z" fill="#e8d5cb" stroke="#e8d5cb"/><path d="M526,414L560,506L724,332Z" fill="#e6dfdb" stroke="#e6dfdb"/><path d="M724,332L560,506L720,528Z" fill="#d4d3d3" stroke="#d4d3d3"/><path d="M724,332L720,528L841,410Z" fill="#d5d5d5" stroke="#d5d5d5"/><path d="M841,410L720,528L884,472Z" fill="#bebebe" stroke="#bebebe"/><path d="M841,410L884,472L1008,417Z" fill="#bebebe" stroke="#bebebe"/><path d="M1008,417L884,472L1012,512Z" fill="#a9a9a9" stroke="#a9a9a9"/><path d="M1008,417L1012,512L1113,479Z" fill="#9c9c9c" stroke="#9c9c9c"/><path d="M1008,417L1113,479L1084,344Z" fill="#ababab" stroke="#ababab"/><path d="M1084,344L1113,479L1325,343Z" fill="#9e9e9e" stroke="#9e9e9e"/><path d="M1325,343L1113,479L1302,515Z" fill="#828282" stroke="#828282"/><path d="M1325,343L1302,515L1371,431Z" fill="#797979" stroke="#797979"/><path d="M1371,431L1302,515L1433,530Z" fill="#5c5c5c" stroke="#5c5c5c"/><path d="M1371,431L1433,530L1540,403Z" fill="#636363" stroke="#636363"/><path d="M1540,403L1433,530L1579,466Z" fill="#5f5f5f" stroke="#5f5f5f"/><path d="M-95,489L-85,779L-24,714Z" fill="#641220" stroke="#641220"/><path d="M-95,489L-24,714L130,561Z" fill="#893c45" stroke="#893c45"/><path d="M130,561L-24,714L64,714Z" fill="#70292c" stroke="#70292c"/><path d="M130,561L64,714L203,635Z" fill="#82433e" stroke="#82433e"/><path d="M130,561L203,635L223,470Z" fill="#a97066" stroke="#a97066"/><path d="M223,470L203,635L337,564Z" fill="#af7e70" stroke="#af7e70"/><path d="M337,564L203,635L407,721Z" fill="#926858" stroke="#926858"/><path d="M337,564L407,721L529,619Z" fill="#997d6f" stroke="#997d6f"/><path d="M337,564L529,619L560,506Z" fill="#b7a297" stroke="#b7a297"/><path d="M560,506L529,619L720,528Z" fill="#b4ada9" stroke="#b4ada9"/><path d="M720,528L529,619L728,716Z" fill="#939291" stroke="#939291"/><path d="M720,528L728,716L832,629Z" fill="#878787" stroke="#878787"/><path d="M720,528L832,629L884,472Z" fill="#a2a2a2" stroke="#a2a2a2"/><path d="M884,472L832,629L1012,512Z" fill="#979797" stroke="#979797"/><path d="M1012,512L832,629L959,687Z" fill="#767676" stroke="#767676"/><path d="M1012,512L959,687L1180,634Z" fill="#636363" stroke="#636363"/><path d="M1012,512L1180,634L1113,479Z" fill="#777777" stroke="#777777"/><path d="M1113,479L1180,634L1302,515Z" fill="#656565" stroke="#656565"/><path d="M1302,515L1180,634L1317,678Z" fill="#3f3f3f" stroke="#3f3f3f"/><path d="M1302,515L1317,678L1416,615Z" fill="#343434" stroke="#343434"/><path d="M1302,515L1416,615L1433,530Z" fill="#414141" stroke="#414141"/><path d="M1433,530L1416,615L1596,673Z" fill="#282828" stroke="#282828"/><path d="M1433,530L1596,673L1579,466Z" fill="#3c3c3c" stroke="#3c3c3c"/><path d="M-24,714L-85,779L108,842Z" fill="#590c16" stroke="#590c16"/><path d="M-24,714L108,842L64,714Z" fill="#5f171b" stroke="#5f171b"/><path d="M64,714L108,842L203,635Z" fill="#672722" stroke="#672722"/><path d="M203,635L108,842L272,856Z" fill="#6e352b" stroke="#6e352b"/><path d="M203,635L272,856L380,794Z" fill="#764839" stroke="#764839"/><path d="M203,635L380,794L407,721Z" fill="#7a5140" stroke="#7a5140"/><path d="M407,721L380,794L571,840Z" fill="#7d6559" stroke="#7d6559"/><path d="M407,721L571,840L529,619Z" fill="#7f6d63" stroke="#7f6d63"/><path d="M529,619L571,840L695,780Z" fill="#776f6b" stroke="#776f6b"/><path d="M529,619L695,780L728,716Z" fill="#72706e" stroke="#72706e"/><path d="M728,716L695,780L852,835Z" fill="#676767" stroke="#676767"/><path d="M728,716L852,835L832,629Z" fill="#626262" stroke="#626262"/><path d="M832,629L852,835L959,687Z" fill="#585858" stroke="#585858"/><path d="M959,687L852,835L1000,794Z" fill="#4f4f4f" stroke="#4f4f4f"/><path d="M959,687L1000,794L1180,634Z" fill="#3e3e3e" stroke="#3e3e3e"/><path d="M1180,634L1000,794L1145,861Z" fill="#333333" stroke="#333333"/><path d="M1180,634L1145,861L1317,678Z" fill="#212121" stroke="#212121"/><path d="M1317,678L1145,861L1333,816Z" fill="#191919" stroke="#191919"/><path d="M1317,678L1333,816L1416,615Z" fill="#090909" stroke="#090909"/><path d="M1416,615L1333,816L1416,868Z" fill="#030303" stroke="#030303"/><path d="M1416,615L1416,868L1545,820Z" fill="#000000" stroke="#000000"/><path d="M1416,615L1545,820L1596,673Z" fill="#000000" stroke="#000000"/><path d="M272,856L1416,868L1145,861Z" fill="#4e4e4e" stroke="#4e4e4e"/><path d="M272,856L1145,861L571,840Z" fill="#71706f" stroke="#71706f"/><path d="M272,856L571,840L380,794Z" fill="#7c5e50" stroke="#7c5e50"/><path d="M571,840L1145,861L852,835Z" fill="#5b5b5b" stroke="#5b5b5b"/><path d="M571,840L852,835L695,780Z" fill="#6d6d6d" stroke="#6d6d6d"/><path d="M852,835L1145,861L1000,794Z" fill="#464646" stroke="#464646"/><path d="M1145,861L1416,868L1333,816Z" fill="#131313" stroke="#131313"/></g></svg>