<svg width="1366" height="587" xmlns="http://www.w3.org/2000/svg"><g><path d="M-72,-64L-131,209L-17,39Z" fill="#fafff3" stroke="#fafff3"/><path d="M-72,-64L-17,39L54,35Z" fill="#f9fdf4" stroke="#f9fdf4"/><path d="M-72,-64L54,35L116,-47Z" fill="#f5fbf1" stroke="#f5fbf1"/><path d="M-72,-64L116,-47L169,-55Z" fill="#f1faed" stroke="#f1faed"/><path d="M-72,-64L169,-55L382,-67Z" fill="#e9f7e5" stroke="#e9f7e5"/><path d="M-72,-64L382,-67L974,-115Z" fill="#cfeddc" stroke="#cfeddc"/><path d="M116,-47L54,35L259,43Z" fill="#eaf7e6" stroke="#eaf7e6"/><path d="M116,-47L259,43L169,-55Z" fill="#e7f6e3" stroke="#e7f6e3"/><path d="M169,-55L259,43L382,-67Z" fill="#dff3df" stroke="#dff3df"/><path d="M382,-67L259,43L419,60Z" fill="#d6f0da" stroke="#d6f0da"/><path d="M382,-67L419,60L550,-45Z" fill="#cdecdd" stroke="#cdecdd"/><path d="M382,-67L550,-45L640,-69Z" fill="#c4e8df" stroke="#c4e8df"/><path d="M382,-67L640,-69L974,-115Z" fill="#b4e1e5" stroke="#b4e1e5"/><path d="M550,-45L419,60L566,99Z" fill="#c3e9da" stroke="#c3e9da"/><path d="M550,-45L566,99L665,55Z" fill="#bae5de" stroke="#bae5de"/><path d="M550,-45L665,55L640,-69Z" fill="#b9e4e3" stroke="#b9e4e3"/><path d="M640,-69L665,55L802,-79Z" fill="#b0dee6" stroke="#b0dee6"/><path d="M640,-69L802,-79L974,-115Z" fill="#a5d7e8" stroke="#a5d7e8"/><path d="M802,-79L665,55L855,29Z" fill="#a8dae9" stroke="#a8dae9"/><path d="M802,-79L855,29L974,-115Z" fill="#9ed0e4" stroke="#9ed0e4"/><path d="M974,-115L855,29L1026,73Z" fill="#97c8e0" stroke="#97c8e0"/><path d="M974,-115L1026,73L1107,-85Z" fill="#90beda" stroke="#90beda"/><path d="M974,-115L1107,-85L1370,-67Z" fill="#86aed0" stroke="#86aed0"/><path d="M974,-115L1370,-67L1631,-42Z" fill="#8097c2" stroke="#8097c2"/><path d="M1107,-85L1026,73L1172,99Z" fill="#88b5d1" stroke="#88b5d1"/><path d="M1107,-85L1172,99L1266,-41Z" fill="#83aace" stroke="#83aace"/><path d="M1107,-85L1266,-41L1370,-67Z" fill="#80a2c8" stroke="#80a2c8"/><path d="M1266,-41L1172,99L1269,108Z" fill="#7ca3c3" stroke="#7ca3c3"/><path d="M1266,-41L1269,108L1370,-67Z" fill="#809ac4" stroke="#809ac4"/><path d="M1370,-67L1269,108L1440,107Z" fill="#7c93b9" stroke="#7c93b9"/><path d="M1370,-67L1440,107L1540,77Z" fill="#7d87b3" stroke="#7d87b3"/><path d="M1370,-67L1540,77L1631,-42Z" fill="#8080b3" stroke="#8080b3"/><path d="M1631,-42L1540,77L1564,172Z" fill="#7b80a5" stroke="#7b80a5"/><path d="M1631,-42L1564,172L1620,563Z" fill="#507b9f" stroke="#507b9f"/><path d="M-17,39L-131,209L129,270Z" fill="#dbfce1" stroke="#dbfce1"/><path d="M-17,39L129,270L54,35Z" fill="#e5fae1" stroke="#e5fae1"/><path d="M54,35L129,270L259,43Z" fill="#dcf7d9" stroke="#dcf7d9"/><path d="M259,43L129,270L192,267Z" fill="#c2f3d1" stroke="#c2f3d1"/><path d="M259,43L192,267L352,208Z" fill="#c2f2cc" stroke="#c2f2cc"/><path d="M259,43L352,208L419,60Z" fill="#cdf0d0" stroke="#cdf0d0"/><path d="M419,60L352,208L566,99Z" fill="#bdecce" stroke="#bdecce"/><path d="M566,99L352,208L541,283Z" fill="#a4e8cd" stroke="#a4e8cd"/><path d="M566,99L541,283L619,270Z" fill="#93e3d3" stroke="#93e3d3"/><path d="M566,99L619,270L665,55Z" fill="#a5e4d2" stroke="#a5e4d2"/><path d="M665,55L619,270L775,206Z" fill="#93dfd3" stroke="#93dfd3"/><path d="M665,55L775,206L855,29Z" fill="#9fdadd" stroke="#9fdadd"/><path d="M855,29L775,206L1026,73Z" fill="#92cfd8" stroke="#92cfd8"/><path d="M1026,73L775,206L1022,271Z" fill="#78c8cf" stroke="#78c8cf"/><path d="M1026,73L1022,271L1136,256Z" fill="#68b8c8" stroke="#68b8c8"/><path d="M1026,73L1136,256L1172,99Z" fill="#74b4c3" stroke="#74b4c3"/><path d="M1172,99L1136,256L1234,178Z" fill="#64aabb" stroke="#64aabb"/><path d="M1172,99L1234,178L1269,108Z" fill="#6ea5bb" stroke="#6ea5bb"/><path d="M1269,108L1234,178L1462,170Z" fill="#6898b1" stroke="#6898b1"/><path d="M1269,108L1462,170L1440,107Z" fill="#6e8fae" stroke="#6e8fae"/><path d="M1440,107L1462,170L1540,77Z" fill="#7182a7" stroke="#7182a7"/><path d="M1540,77L1462,170L1564,172Z" fill="#6b80a1" stroke="#6b80a1"/><path d="M-131,209L-99,678L-103,543Z" fill="#94bee2" stroke="#94bee2"/><path d="M-131,209L-103,543L-84,412Z" fill="#a1dcf4" stroke="#a1dcf4"/><path d="M-131,209L-84,412L95,374Z" fill="#abe9f5" stroke="#abe9f5"/><path d="M-131,209L95,374L129,270Z" fill="#b4efea" stroke="#b4efea"/><path d="M129,270L95,374L192,267Z" fill="#a4e8e2" stroke="#a4e8e2"/><path d="M192,267L95,374L195,433Z" fill="#92dbe0" stroke="#92dbe0"/><path d="M192,267L195,433L344,372Z" fill="#8bd9db" stroke="#8bd9db"/><path d="M192,267L344,372L352,208Z" fill="#9ce6d7" stroke="#9ce6d7"/><path d="M352,208L344,372L541,283Z" fill="#90e1d5" stroke="#90e1d5"/><path d="M541,283L344,372L571,368Z" fill="#76d4db" stroke="#76d4db"/><path d="M541,283L571,368L619,270Z" fill="#76d6dd" stroke="#76d6dd"/><path d="M619,270L571,368L704,364Z" fill="#67cee2" stroke="#67cee2"/><path d="M619,270L704,364L775,206Z" fill="#71d3df" stroke="#71d3df"/><path d="M775,206L704,364L841,337Z" fill="#61cbe4" stroke="#61cbe4"/><path d="M775,206L841,337L1022,271Z" fill="#61c6db" stroke="#61c6db"/><path d="M1022,271L841,337L1010,385Z" fill="#47b4de" stroke="#47b4de"/><path d="M1022,271L1010,385L1147,396Z" fill="#39a2d4" stroke="#39a2d4"/><path d="M1022,271L1147,396L1136,256Z" fill="#42a5d0" stroke="#42a5d0"/><path d="M1136,256L1147,396L1324,358Z" fill="#2f92cb" stroke="#2f92cb"/><path d="M1136,256L1324,358L1234,178Z" fill="#469cc1" stroke="#469cc1"/><path d="M1234,178L1324,358L1462,170Z" fill="#4f90b5" stroke="#4f90b5"/><path d="M1462,170L1324,358L1389,393Z" fill="#387eb8" stroke="#387eb8"/><path d="M1462,170L1389,393L1520,428Z" fill="#3072b5" stroke="#3072b5"/><path d="M1462,170L1520,428L1564,172Z" fill="#4879a9" stroke="#4879a9"/><path d="M1564,172L1520,428L1620,563Z" fill="#225ca5" stroke="#225ca5"/><path d="M-84,412L-103,543L87,519Z" fill="#8eb7d8" stroke="#8eb7d8"/><path d="M-84,412L87,519L95,374Z" fill="#8dc9df" stroke="#8dc9df"/><path d="M95,374L87,519L195,433Z" fill="#84c3d5" stroke="#84c3d5"/><path d="M195,433L87,519L246,573Z" fill="#79a9c1" stroke="#79a9c1"/><path d="M195,433L246,573L327,533Z" fill="#71a5bc" stroke="#71a5bc"/><path d="M195,433L327,533L344,372Z" fill="#75bcca" stroke="#75bcca"/><path d="M344,372L327,533L505,519Z" fill="#68aebf" stroke="#68aebf"/><path d="M344,372L505,519L571,368Z" fill="#64bfcf" stroke="#64bfcf"/><path d="M571,368L505,519L657,547Z" fill="#53a5c6" stroke="#53a5c6"/><path d="M571,368L657,547L704,364Z" fill="#50b3d5" stroke="#50b3d5"/><path d="M704,364L657,547L774,498Z" fill="#449fcd" stroke="#449fcd"/><path d="M704,364L774,498L841,337Z" fill="#47b3de" stroke="#47b3de"/><path d="M841,337L774,498L988,550Z" fill="#3595cd" stroke="#3595cd"/><path d="M841,337L988,550L1010,385Z" fill="#319bd1" stroke="#319bd1"/><path d="M1010,385L988,550L1103,556Z" fill="#2376ba" stroke="#2376ba"/><path d="M1010,385L1103,556L1147,396Z" fill="#2381c2" stroke="#2381c2"/><path d="M1147,396L1103,556L1323,565Z" fill="#145dab" stroke="#145dab"/><path d="M1147,396L1323,565L1324,358Z" fill="#186cb5" stroke="#186cb5"/><path d="M1324,358L1323,565L1389,393Z" fill="#1862ae" stroke="#1862ae"/><path d="M1389,393L1323,565L1445,568Z" fill="#11429a" stroke="#11429a"/><path d="M1389,393L1445,568L1520,428Z" fill="#164aa0" stroke="#164aa0"/><path d="M1520,428L1445,568L1620,563Z" fill="#102f8c" stroke="#102f8c"/><path d="M-103,543L-99,678L23,658Z" fill="#8386bb" stroke="#8386bb"/><path d="M-103,543L23,658L87,519Z" fill="#8397c2" stroke="#8397c2"/><path d="M87,519L23,658L201,641Z" fill="#7688b1" stroke="#7688b1"/><path d="M87,519L201,641L246,573Z" fill="#728fb1" stroke="#728fb1"/><path d="M246,573L201,641L361,692Z" fill="#64779f" stroke="#64779f"/><path d="M246,573L361,692L327,533Z" fill="#6483a5" stroke="#6483a5"/><path d="M327,533L361,692L505,626Z" fill="#5a799f" stroke="#5a799f"/><path d="M327,533L505,626L505,519Z" fill="#5a8cae" stroke="#5a8cae"/><path d="M505,519L505,626L657,547Z" fill="#4d86b1" stroke="#4d86b1"/><path d="M657,547L505,626L715,620Z" fill="#4275ac" stroke="#4275ac"/><path d="M657,547L715,620L774,498Z" fill="#3b7fb9" stroke="#3b7fb9"/><path d="M774,498L715,620L919,688Z" fill="#2d68b0" stroke="#2d68b0"/><path d="M774,498L919,688L988,550Z" fill="#2867b0" stroke="#2867b0"/><path d="M988,550L919,688L1148,648Z" fill="#17479d" stroke="#17479d"/><path d="M988,550L1148,648L1103,556Z" fill="#164fa2" stroke="#164fa2"/><path d="M1103,556L1148,648L1323,565Z" fill="#0b3e98" stroke="#0b3e98"/><path d="M1323,565L1148,648L1330,702Z" fill="#052286" stroke="#052286"/><path d="M1323,565L1330,702L1417,663Z" fill="#04147e" stroke="#04147e"/><path d="M1323,565L1417,663L1445,568Z" fill="#091f85" stroke="#091f85"/><path d="M1445,568L1417,663L1605,693Z" fill="#050373" stroke="#050373"/><path d="M1445,568L1605,693L1620,563Z" fill="#080e75" stroke="#080e75"/><path d="M-99,678L800,727L361,692Z" fill="#58708d" stroke="#58708d"/><path d="M-99,678L361,692L23,658Z" fill="#7079a2" stroke="#7079a2"/><path d="M23,658L361,692L201,641Z" fill="#68769b" stroke="#68769b"/><path d="M361,692L800,727L505,626Z" fill="#426896" stroke="#426896"/><path d="M505,626L800,727L715,620Z" fill="#3761a0" stroke="#3761a0"/><path d="M715,620L800,727L919,688Z" fill="#25579e" stroke="#25579e"/><path d="M800,727L1605,693L1330,702Z" fill="#002278" stroke="#002278"/><path d="M800,727L1330,702L919,688Z" fill="#12418b" stroke="#12418b"/><path d="M919,688L1330,702L1148,648Z" fill="#083187" stroke="#083187"/><path d="M1330,702L1605,693L1417,663Z" fill="#00076c" stroke="#00076c"/></g></svg>