<svg width="1351" height="675" xmlns="http://www.w3.org/2000/svg"><g><path d="M-40,-38L-57,36L37,-46Z" fill="#f9fdf5" stroke="#f9fdf5"/><path d="M37,-46L-57,36L64,47Z" fill="#f6fcf2" stroke="#f6fcf2"/><path d="M37,-46L64,47L146,-54Z" fill="#f1faed" stroke="#f1faed"/><path d="M146,-54L64,47L143,48Z" fill="#eef9ea" stroke="#eef9ea"/><path d="M146,-54L143,48L246,-35Z" fill="#e9f7e6" stroke="#e9f7e6"/><path d="M146,-54L246,-35L336,-46Z" fill="#e4f5e2" stroke="#e4f5e2"/><path d="M146,-54L336,-46L461,-47Z" fill="#dff2df" stroke="#dff2df"/><path d="M146,-54L461,-47L653,-54Z" fill="#d6efdb" stroke="#d6efdb"/><path d="M146,-54L653,-54L951,-63Z" fill="#c6e9df" stroke="#c6e9df"/><path d="M246,-35L143,48L264,65Z" fill="#e5f5e0" stroke="#e5f5e0"/><path d="M246,-35L264,65L336,52Z" fill="#e0f3de" stroke="#e0f3de"/><path d="M246,-35L336,52L336,-46Z" fill="#dff3df" stroke="#dff3df"/><path d="M336,-46L336,52L461,-47Z" fill="#daf1dd" stroke="#daf1dd"/><path d="M461,-47L336,52L455,64Z" fill="#d5efd9" stroke="#d5efd9"/><path d="M461,-47L455,64L543,39Z" fill="#cfedda" stroke="#cfedda"/><path d="M461,-47L543,39L551,-41Z" fill="#cdecdd" stroke="#cdecdd"/><path d="M461,-47L551,-41L653,-54Z" fill="#c9eade" stroke="#c9eade"/><path d="M551,-41L543,39L652,37Z" fill="#c6e9de" stroke="#c6e9de"/><path d="M551,-41L652,37L653,-54Z" fill="#c3e8e0" stroke="#c3e8e0"/><path d="M653,-54L652,37L736,-54Z" fill="#bde5e2" stroke="#bde5e2"/><path d="M653,-54L736,-54L951,-63Z" fill="#b0dce3" stroke="#b0dce3"/><path d="M736,-54L652,37L765,55Z" fill="#b8e2e1" stroke="#b8e2e1"/><path d="M736,-54L765,55L851,-38Z" fill="#b0dce3" stroke="#b0dce3"/><path d="M736,-54L851,-38L951,-63Z" fill="#a8d6e4" stroke="#a8d6e4"/><path d="M851,-38L765,55L860,54Z" fill="#a9d8e2" stroke="#a9d8e2"/><path d="M851,-38L860,54L961,60Z" fill="#a1d2e2" stroke="#a1d2e2"/><path d="M851,-38L961,60L951,-63Z" fill="#9fcee3" stroke="#9fcee3"/><path d="M951,-63L961,60L1037,-51Z" fill="#96c6df" stroke="#96c6df"/><path d="M951,-63L1037,-51L1253,-61Z" fill="#8abad9" stroke="#8abad9"/><path d="M1037,-51L961,60L1041,43Z" fill="#92c2dc" stroke="#92c2dc"/><path d="M1037,-51L1041,43L1137,45Z" fill="#8abbd8" stroke="#8abbd8"/><path d="M1037,-51L1137,45L1163,-36Z" fill="#86b5d7" stroke="#86b5d7"/><path d="M1037,-51L1163,-36L1253,-61Z" fill="#80b1d4" stroke="#80b1d4"/><path d="M1163,-36L1137,45L1252,55Z" fill="#7facd0" stroke="#7facd0"/><path d="M1163,-36L1252,55L1253,-61Z" fill="#80a7cf" stroke="#80a7cf"/><path d="M1253,-61L1252,55L1344,-36Z" fill="#80a0cb" stroke="#80a0cb"/><path d="M1253,-61L1344,-36L1464,-52Z" fill="#8096c7" stroke="#8096c7"/><path d="M1344,-36L1252,55L1337,60Z" fill="#7e9cc7" stroke="#7e9cc7"/><path d="M1344,-36L1337,60L1456,36Z" fill="#7f93c3" stroke="#7f93c3"/><path d="M1344,-36L1456,36L1464,-52Z" fill="#808ec2" stroke="#808ec2"/><path d="M1464,-52L1456,36L1457,257Z" fill="#7b89b9" stroke="#7b89b9"/><path d="M1464,-52L1457,257L1462,554Z" fill="#5e87ae" stroke="#5e87ae"/><path d="M-57,36L-56,335L-55,144Z" fill="#ebfee9" stroke="#ebfee9"/><path d="M-57,36L-55,144L64,47Z" fill="#f5fdee" stroke="#f5fdee"/><path d="M64,47L-55,144L46,162Z" fill="#effce8" stroke="#effce8"/><path d="M64,47L46,162L153,160Z" fill="#e9fae2" stroke="#e9fae2"/><path d="M64,47L153,160L143,48Z" fill="#eaf9e3" stroke="#eaf9e3"/><path d="M143,48L153,160L264,65Z" fill="#e4f6dd" stroke="#e4f6dd"/><path d="M264,65L153,160L260,157Z" fill="#ddf5d7" stroke="#ddf5d7"/><path d="M264,65L260,157L361,153Z" fill="#d8f3d5" stroke="#d8f3d5"/><path d="M264,65L361,153L336,52Z" fill="#d9f2d7" stroke="#d9f2d7"/><path d="M336,52L361,153L442,137Z" fill="#d3f0d3" stroke="#d3f0d3"/><path d="M336,52L442,137L455,64Z" fill="#d2efd4" stroke="#d2efd4"/><path d="M455,64L442,137L538,144Z" fill="#caedd1" stroke="#caedd1"/><path d="M455,64L538,144L543,39Z" fill="#c9ecd5" stroke="#c9ecd5"/><path d="M543,39L538,144L639,154Z" fill="#c1ead4" stroke="#c1ead4"/><path d="M543,39L639,154L652,37Z" fill="#c0e8d9" stroke="#c0e8d9"/><path d="M652,37L639,154L755,141Z" fill="#b6e5d8" stroke="#b6e5d8"/><path d="M652,37L755,141L765,55Z" fill="#b3e1db" stroke="#b3e1db"/><path d="M765,55L755,141L852,135Z" fill="#a9dbd9" stroke="#a9dbd9"/><path d="M765,55L852,135L860,54Z" fill="#a6d8dd" stroke="#a6d8dd"/><path d="M860,54L852,135L943,151Z" fill="#9dd2db" stroke="#9dd2db"/><path d="M860,54L943,151L961,60Z" fill="#9acedb" stroke="#9acedb"/><path d="M961,60L943,151L1045,158Z" fill="#8ec6d4" stroke="#8ec6d4"/><path d="M961,60L1045,158L1041,43Z" fill="#8ec2d6" stroke="#8ec2d6"/><path d="M1041,43L1045,158L1137,45Z" fill="#86bad2" stroke="#86bad2"/><path d="M1137,45L1045,158L1145,154Z" fill="#7fb6cc" stroke="#7fb6cc"/><path d="M1137,45L1145,154L1252,55Z" fill="#7badcb" stroke="#7badcb"/><path d="M1252,55L1145,154L1257,164Z" fill="#77a8c5" stroke="#77a8c5"/><path d="M1252,55L1257,164L1337,60Z" fill="#7ba0c3" stroke="#7ba0c3"/><path d="M1337,60L1257,164L1353,157Z" fill="#779bbe" stroke="#779bbe"/><path d="M1337,60L1353,157L1449,143Z" fill="#7893ba" stroke="#7893ba"/><path d="M1337,60L1449,143L1456,36Z" fill="#7c8fbc" stroke="#7c8fbc"/><path d="M1456,36L1449,143L1457,257Z" fill="#7389b3" stroke="#7389b3"/><path d="M-55,144L-56,335L-39,238Z" fill="#ddfde5" stroke="#ddfde5"/><path d="M-55,144L-39,238L46,162Z" fill="#e6fde5" stroke="#e6fde5"/><path d="M46,162L-39,238L59,255Z" fill="#dcfcdf" stroke="#dcfcdf"/><path d="M46,162L59,255L153,160Z" fill="#dbfadd" stroke="#dbfadd"/><path d="M153,160L59,255L137,264Z" fill="#d2f9d7" stroke="#d2f9d7"/><path d="M153,160L137,264L263,246Z" fill="#cef7d2" stroke="#cef7d2"/><path d="M153,160L263,246L260,157Z" fill="#d1f5d2" stroke="#d1f5d2"/><path d="M260,157L263,246L351,243Z" fill="#c7f3cd" stroke="#c7f3cd"/><path d="M260,157L351,243L361,153Z" fill="#caf2cf" stroke="#caf2cf"/><path d="M361,153L351,243L459,244Z" fill="#bff0ca" stroke="#bff0ca"/><path d="M361,153L459,244L442,137Z" fill="#c4efcc" stroke="#c4efcc"/><path d="M442,137L459,244L538,144Z" fill="#bfedcc" stroke="#bfedcc"/><path d="M538,144L459,244L564,247Z" fill="#b4ecca" stroke="#b4ecca"/><path d="M538,144L564,247L639,154Z" fill="#b4e9cf" stroke="#b4e9cf"/><path d="M639,154L564,247L646,237Z" fill="#aae8cd" stroke="#aae8cd"/><path d="M639,154L646,237L755,141Z" fill="#aae5d2" stroke="#aae5d2"/><path d="M755,141L646,237L755,264Z" fill="#9ee2d0" stroke="#9ee2d0"/><path d="M755,141L755,264L849,241Z" fill="#96dbd1" stroke="#96dbd1"/><path d="M755,141L849,241L852,135Z" fill="#9ad8d5" stroke="#9ad8d5"/><path d="M852,135L849,241L943,151Z" fill="#92d3d5" stroke="#92d3d5"/><path d="M943,151L849,241L962,237Z" fill="#86cfd2" stroke="#86cfd2"/><path d="M943,151L962,237L1045,158Z" fill="#83c6cf" stroke="#83c6cf"/><path d="M1045,158L962,237L1050,259Z" fill="#78c2ca" stroke="#78c2ca"/><path d="M1045,158L1050,259L1140,254Z" fill="#6fbac5" stroke="#6fbac5"/><path d="M1045,158L1140,254L1145,154Z" fill="#71b6c6" stroke="#71b6c6"/><path d="M1145,154L1140,254L1257,164Z" fill="#6badc2" stroke="#6badc2"/><path d="M1257,164L1140,254L1253,258Z" fill="#64a8bc" stroke="#64a8bc"/><path d="M1257,164L1253,258L1361,255Z" fill="#649fb7" stroke="#649fb7"/><path d="M1257,164L1361,255L1353,157Z" fill="#6b9ab8" stroke="#6b9ab8"/><path d="M1353,157L1361,255L1449,143Z" fill="#6c92b4" stroke="#6c92b4"/><path d="M1449,143L1361,255L1457,257Z" fill="#668eaf" stroke="#668eaf"/><path d="M-39,238L-56,335L59,255Z" fill="#d1fae5" stroke="#d1fae5"/><path d="M59,255L-56,335L55,347Z" fill="#c6f7e6" stroke="#c6f7e6"/><path d="M59,255L55,347L137,264Z" fill="#c7f6df" stroke="#c7f6df"/><path d="M137,264L55,347L154,348Z" fill="#bdf4df" stroke="#bdf4df"/><path d="M137,264L154,348L237,341Z" fill="#b8f2da" stroke="#b8f2da"/><path d="M137,264L237,341L263,246Z" fill="#bdf3d4" stroke="#bdf3d4"/><path d="M263,246L237,341L360,363Z" fill="#b0eed4" stroke="#b0eed4"/><path d="M263,246L360,363L351,243Z" fill="#b4efd0" stroke="#b4efd0"/><path d="M351,243L360,363L459,244Z" fill="#b0edcd" stroke="#b0edcd"/><path d="M459,244L360,363L464,361Z" fill="#a3ead0" stroke="#a3ead0"/><path d="M459,244L464,361L551,336Z" fill="#9fe8cf" stroke="#9fe8cf"/><path d="M459,244L551,336L564,247Z" fill="#a5e9cd" stroke="#a5e9cd"/><path d="M564,247L551,336L643,341Z" fill="#97e5d2" stroke="#97e5d2"/><path d="M564,247L643,341L646,237Z" fill="#9ce5d0" stroke="#9ce5d0"/><path d="M646,237L643,341L755,264Z" fill="#94e2d3" stroke="#94e2d3"/><path d="M755,264L643,341L737,348Z" fill="#87ddd6" stroke="#87ddd6"/><path d="M755,264L737,348L843,337Z" fill="#7fd7d7" stroke="#7fd7d7"/><path d="M755,264L843,337L849,241Z" fill="#83d6d5" stroke="#83d6d5"/><path d="M849,241L843,337L944,354Z" fill="#74ced8" stroke="#74ced8"/><path d="M849,241L944,354L962,237Z" fill="#77cbd4" stroke="#77cbd4"/><path d="M962,237L944,354L1050,259Z" fill="#6dc3d0" stroke="#6dc3d0"/><path d="M1050,259L944,354L1053,356Z" fill="#60bdd2" stroke="#60bdd2"/><path d="M1050,259L1053,356L1148,337Z" fill="#58b4cd" stroke="#58b4cd"/><path d="M1050,259L1148,337L1140,254Z" fill="#5cb2c8" stroke="#5cb2c8"/><path d="M1140,254L1148,337L1253,258Z" fill="#57aac3" stroke="#57aac3"/><path d="M1253,258L1148,337L1254,340Z" fill="#50a3c3" stroke="#50a3c3"/><path d="M1253,258L1254,340L1361,255Z" fill="#569cbc" stroke="#569cbc"/><path d="M1361,255L1254,340L1357,349Z" fill="#4f95bc" stroke="#4f95bc"/><path d="M1361,255L1357,349L1457,257Z" fill="#568eb6" stroke="#568eb6"/><path d="M1457,257L1357,349L1456,354Z" fill="#4e88b6" stroke="#4e88b6"/><path d="M1457,257L1456,354L1462,554Z" fill="#3b77b7" stroke="#3b77b7"/><path d="M-56,335L-50,535L-46,462Z" fill="#a6e0f1" stroke="#a6e0f1"/><path d="M-56,335L-46,462L55,347Z" fill="#b6edec" stroke="#b6edec"/><path d="M55,347L-46,462L65,443Z" fill="#a8e4ea" stroke="#a8e4ea"/><path d="M55,347L65,443L154,348Z" fill="#aeeae4" stroke="#aeeae4"/><path d="M154,348L65,443L154,460Z" fill="#a0e1e2" stroke="#a0e1e2"/><path d="M154,348L154,460L236,457Z" fill="#9adede" stroke="#9adede"/><path d="M154,348L236,457L237,341Z" fill="#a4e6db" stroke="#a4e6db"/><path d="M237,341L236,457L360,363Z" fill="#9de3d7" stroke="#9de3d7"/><path d="M360,363L236,457L365,442Z" fill="#8fdad7" stroke="#8fdad7"/><path d="M360,363L365,442L464,361Z" fill="#93ded3" stroke="#93ded3"/><path d="M464,361L365,442L464,451Z" fill="#87d7d3" stroke="#87d7d3"/><path d="M464,361L464,451L563,462Z" fill="#7fd3d4" stroke="#7fd3d4"/><path d="M464,361L563,462L551,336Z" fill="#88dad4" stroke="#88dad4"/><path d="M551,336L563,462L637,441Z" fill="#7ad2d7" stroke="#7ad2d7"/><path d="M551,336L637,441L643,341Z" fill="#83dad6" stroke="#83dad6"/><path d="M643,341L637,441L737,348Z" fill="#7cd7d8" stroke="#7cd7d8"/><path d="M737,348L637,441L735,445Z" fill="#6ecdda" stroke="#6ecdda"/><path d="M737,348L735,445L843,337Z" fill="#70ceda" stroke="#70ceda"/><path d="M843,337L735,445L858,445Z" fill="#61c3db" stroke="#61c3db"/><path d="M843,337L858,445L944,354Z" fill="#61c4db" stroke="#61c4db"/><path d="M944,354L858,445L952,445Z" fill="#52b8dc" stroke="#52b8dc"/><path d="M944,354L952,445L1035,443Z" fill="#4ab0d8" stroke="#4ab0d8"/><path d="M944,354L1035,443L1053,356Z" fill="#4fb2d4" stroke="#4fb2d4"/><path d="M1053,356L1035,443L1153,456Z" fill="#3ca2d1" stroke="#3ca2d1"/><path d="M1053,356L1153,456L1148,337Z" fill="#41a5cd" stroke="#41a5cd"/><path d="M1148,337L1153,456L1252,445Z" fill="#3396ca" stroke="#3396ca"/><path d="M1148,337L1252,445L1254,340Z" fill="#3f9ac6" stroke="#3f9ac6"/><path d="M1254,340L1252,445L1336,442Z" fill="#348ac3" stroke="#348ac3"/><path d="M1254,340L1336,442L1357,349Z" fill="#3e8cc0" stroke="#3e8cc0"/><path d="M1357,349L1336,442L1450,446Z" fill="#337cbd" stroke="#337cbd"/><path d="M1357,349L1450,446L1456,354Z" fill="#3c7eb9" stroke="#3c7eb9"/><path d="M1456,354L1450,446L1462,554Z" fill="#286ab9" stroke="#286ab9"/><path d="M-46,462L-50,535L46,555Z" fill="#94c9e3" stroke="#94c9e3"/><path d="M-46,462L46,555L65,443Z" fill="#97d2e5" stroke="#97d2e5"/><path d="M65,443L46,555L142,540Z" fill="#8dc8dc" stroke="#8dc8dc"/><path d="M65,443L142,540L154,460Z" fill="#91d0de" stroke="#91d0de"/><path d="M154,460L142,540L236,457Z" fill="#8bcdd9" stroke="#8bcdd9"/><path d="M236,457L142,540L250,553Z" fill="#82c2d2" stroke="#82c2d2"/><path d="M236,457L250,553L354,555Z" fill="#7bbfce" stroke="#7bbfce"/><path d="M236,457L354,555L365,442Z" fill="#80c9d2" stroke="#80c9d2"/><path d="M365,442L354,555L446,545Z" fill="#74becb" stroke="#74becb"/><path d="M365,442L446,545L464,451Z" fill="#78c7d0" stroke="#78c7d0"/><path d="M464,451L446,545L550,541Z" fill="#6cbbca" stroke="#6cbbca"/><path d="M464,451L550,541L563,462Z" fill="#6ec2d0" stroke="#6ec2d0"/><path d="M563,462L550,541L635,560Z" fill="#61b4cc" stroke="#61b4cc"/><path d="M563,462L635,560L637,441Z" fill="#65bed3" stroke="#65bed3"/><path d="M637,441L635,560L735,445Z" fill="#60bdd6" stroke="#60bdd6"/><path d="M735,445L635,560L746,553Z" fill="#54aed0" stroke="#54aed0"/><path d="M735,445L746,553L841,553Z" fill="#4ca9d2" stroke="#4ca9d2"/><path d="M735,445L841,553L858,445Z" fill="#4fb1d8" stroke="#4fb1d8"/><path d="M858,445L841,553L957,539Z" fill="#3fa0d4" stroke="#3fa0d4"/><path d="M858,445L957,539L952,445Z" fill="#41a7d8" stroke="#41a7d8"/><path d="M952,445L957,539L1035,443Z" fill="#3a9fd4" stroke="#3a9fd4"/><path d="M1035,443L957,539L1059,553Z" fill="#2e90cc" stroke="#2e90cc"/><path d="M1035,443L1059,553L1153,456Z" fill="#2b90cc" stroke="#2b90cc"/><path d="M1153,456L1059,553L1163,564Z" fill="#1d7ec3" stroke="#1d7ec3"/><path d="M1153,456L1163,564L1247,550Z" fill="#1a76bf" stroke="#1a76bf"/><path d="M1153,456L1247,550L1252,445Z" fill="#227ec3" stroke="#227ec3"/><path d="M1252,445L1247,550L1336,442Z" fill="#2278c0" stroke="#2278c0"/><path d="M1336,442L1247,550L1359,557Z" fill="#1b68b8" stroke="#1b68b8"/><path d="M1336,442L1359,557L1450,446Z" fill="#226ab9" stroke="#226ab9"/><path d="M1450,446L1359,557L1462,554Z" fill="#1a59b0" stroke="#1a59b0"/><path d="M-50,535L-35,750L-41,656Z" fill="#7ca2d1" stroke="#7ca2d1"/><path d="M-50,535L-41,656L46,555Z" fill="#87b5d9" stroke="#87b5d9"/><path d="M46,555L-41,656L59,644Z" fill="#7da9d0" stroke="#7da9d0"/><path d="M46,555L59,644L142,540Z" fill="#80b3d2" stroke="#80b3d2"/><path d="M142,540L59,644L163,656Z" fill="#76a7c9" stroke="#76a7c9"/><path d="M142,540L163,656L250,553Z" fill="#77aec9" stroke="#77aec9"/><path d="M250,553L163,656L254,661Z" fill="#6ca1c0" stroke="#6ca1c0"/><path d="M250,553L254,661L338,636Z" fill="#68a2bf" stroke="#68a2bf"/><path d="M250,553L338,636L354,555Z" fill="#6dabc3" stroke="#6dabc3"/><path d="M354,555L338,636L446,545Z" fill="#68aac1" stroke="#68aac1"/><path d="M446,545L338,636L456,664Z" fill="#5e9eba" stroke="#5e9eba"/><path d="M446,545L456,664L550,541Z" fill="#5ea5bf" stroke="#5ea5bf"/><path d="M550,541L456,664L560,665Z" fill="#5398ba" stroke="#5398ba"/><path d="M550,541L560,665L635,560Z" fill="#54a0c2" stroke="#54a0c2"/><path d="M635,560L560,665L657,636Z" fill="#4a95bd" stroke="#4a95bd"/><path d="M635,560L657,636L746,553Z" fill="#4b9dc5" stroke="#4b9dc5"/><path d="M746,553L657,636L736,663Z" fill="#4090c0" stroke="#4090c0"/><path d="M746,553L736,663L841,553Z" fill="#3d93c6" stroke="#3d93c6"/><path d="M841,553L736,663L857,662Z" fill="#3284c1" stroke="#3284c1"/><path d="M841,553L857,662L942,640Z" fill="#2b80c2" stroke="#2b80c2"/><path d="M841,553L942,640L957,539Z" fill="#2f89c8" stroke="#2f89c8"/><path d="M957,539L942,640L1045,652Z" fill="#1f76bf" stroke="#1f76bf"/><path d="M957,539L1045,652L1059,553Z" fill="#207ac1" stroke="#207ac1"/><path d="M1059,553L1045,652L1145,644Z" fill="#1067b7" stroke="#1067b7"/><path d="M1059,553L1145,644L1163,564Z" fill="#116bb9" stroke="#116bb9"/><path d="M1163,564L1145,644L1254,641Z" fill="#075ab0" stroke="#075ab0"/><path d="M1163,564L1254,641L1247,550Z" fill="#0d5fb3" stroke="#0d5fb3"/><path d="M1247,550L1254,641L1359,557Z" fill="#0e58af" stroke="#0e58af"/><path d="M1359,557L1254,641L1337,651Z" fill="#0749a8" stroke="#0749a8"/><path d="M1359,557L1337,651L1447,643Z" fill="#0741a3" stroke="#0741a3"/><path d="M1359,557L1447,643L1462,554Z" fill="#0d45a5" stroke="#0d45a5"/><path d="M1462,554L1447,643L1454,745Z" fill="#012e99" stroke="#012e99"/><path d="M-41,656L-35,750L52,744Z" fill="#798bc3" stroke="#798bc3"/><path d="M-41,656L52,744L59,644Z" fill="#7696c6" stroke="#7696c6"/><path d="M59,644L52,744L142,744Z" fill="#728bbd" stroke="#728bbd"/><path d="M59,644L142,744L163,656Z" fill="#6f92be" stroke="#6f92be"/><path d="M163,656L142,744L248,751Z" fill="#6a86b4" stroke="#6a86b4"/><path d="M163,656L248,751L254,661Z" fill="#678db5" stroke="#678db5"/><path d="M254,661L248,751L361,759Z" fill="#6180ad" stroke="#6180ad"/><path d="M254,661L361,759L338,636Z" fill="#5f8bb2" stroke="#5f8bb2"/><path d="M338,636L361,759L456,664Z" fill="#5989b0" stroke="#5989b0"/><path d="M456,664L361,759L465,735Z" fill="#567da9" stroke="#567da9"/><path d="M456,664L465,735L549,736Z" fill="#507eab" stroke="#507eab"/><path d="M456,664L549,736L560,665Z" fill="#4d84b0" stroke="#4d84b0"/><path d="M560,665L549,736L649,762Z" fill="#4777ac" stroke="#4777ac"/><path d="M560,665L649,762L657,636Z" fill="#4380b3" stroke="#4380b3"/><path d="M657,636L649,762L736,663Z" fill="#3d7eb5" stroke="#3d7eb5"/><path d="M736,663L649,762L737,742Z" fill="#3a70b0" stroke="#3a70b0"/><path d="M736,663L737,742L857,662Z" fill="#3174b6" stroke="#3174b6"/><path d="M857,662L737,742L865,737Z" fill="#2c68b3" stroke="#2c68b3"/><path d="M857,662L865,737L942,640Z" fill="#236cb9" stroke="#236cb9"/><path d="M942,640L865,737L957,738Z" fill="#1f61b3" stroke="#1f61b3"/><path d="M942,640L957,738L1045,652Z" fill="#1762b4" stroke="#1762b4"/><path d="M1045,652L957,738L1062,748Z" fill="#1252ac" stroke="#1252ac"/><path d="M1045,652L1062,748L1145,644Z" fill="#0a53ad" stroke="#0a53ad"/><path d="M1145,644L1062,748L1146,749Z" fill="#0545a5" stroke="#0545a5"/><path d="M1145,644L1146,749L1254,641Z" fill="#0048a7" stroke="#0048a7"/><path d="M1254,641L1146,749L1264,749Z" fill="#00389e" stroke="#00389e"/><path d="M1254,641L1264,749L1337,651Z" fill="#003a9f" stroke="#003a9f"/><path d="M1337,651L1264,749L1335,757Z" fill="#002a97" stroke="#002a97"/><path d="M1337,651L1335,757L1454,745Z" fill="#002393" stroke="#002393"/><path d="M1337,651L1454,745L1447,643Z" fill="#002997" stroke="#002997"/><path d="M-35,750L361,759L248,751Z" fill="#697aad" stroke="#697aad"/><path d="M-35,750L248,751L142,744Z" fill="#6f7eb4" stroke="#6f7eb4"/><path d="M-35,750L142,744L52,744Z" fill="#7481b9" stroke="#7481b9"/><path d="M361,759L649,762L465,735Z" fill="#5071a4" stroke="#5071a4"/><path d="M465,735L649,762L549,736Z" fill="#4a71a8" stroke="#4a71a8"/><path d="M649,762L1335,757L1062,748Z" fill="#1345a5" stroke="#1345a5"/><path d="M649,762L1062,748L865,737Z" fill="#275aad" stroke="#275aad"/><path d="M649,762L865,737L737,742Z" fill="#3465ac" stroke="#3465ac"/><path d="M865,737L1062,748L957,738Z" fill="#1a51ab" stroke="#1a51ab"/><path d="M1062,748L1335,757L1146,749Z" fill="#00319b" stroke="#00319b"/><path d="M1146,749L1335,757L1264,749Z" fill="#002896" stroke="#002896"/></g></svg>